<svg width="500" height="500" viewBox="0 0 500 500" fill="none" xmlns="http://www.w3.org/2000/svg">
<path d="M99.1876 245.687C99.9556 245.692 100.724 245.697 101.515 245.702C108.455 245.846 113.252 246.689 118.75 251.312C121.071 254.085 123.017 256.98 125 260C126.041 259.874 127.082 259.747 128.155 259.617C168.254 254.806 168.254 254.806 184 257C184.761 257.103 185.522 257.206 186.306 257.312C208.269 260.557 228.801 270.631 249.104 279.188C256.766 282.416 264.44 285.596 272.176 288.645C273.645 289.227 275.113 289.809 276.582 290.392C278.67 291.219 280.759 292.042 282.855 292.849C296.712 298.187 296.712 298.187 302 304C302.667 306.684 302.667 306.684 303 309C304.841 308.406 304.841 308.406 306.718 307.801C321.114 303.177 335.557 298.714 350.043 294.385C353.446 293.368 356.846 292.345 360.241 291.306C363.602 290.278 366.966 289.267 370.335 288.267C372.195 287.71 374.05 287.138 375.904 286.565C384.058 284.169 393.919 281.491 401.938 285.625C407.22 289.722 411.282 294.129 412.289 300.961C412.728 307.547 410.875 312.699 407 318C404.89 319.591 404.89 319.591 402.485 320.96C401.596 321.467 400.706 321.974 399.79 322.496C395.283 324.926 390.72 327.216 386.113 329.449C385.094 329.947 384.076 330.445 383.026 330.959C379.79 332.539 376.551 334.113 373.313 335.688C371.192 336.723 369.072 337.759 366.951 338.795C355.67 344.302 344.361 349.748 333.028 355.148C327.504 357.786 322.007 360.47 316.535 363.215C314.657 364.15 312.778 365.085 310.899 366.019C309.66 366.639 308.423 367.264 307.188 367.894C287.72 377.803 270.207 380.369 249 374C243.075 372.041 237.243 369.824 231.413 367.601C228.621 366.537 225.824 365.485 223.026 364.435C214.796 361.343 206.577 358.222 198.363 355.087C195.229 353.893 192.092 352.707 188.954 351.523C186.826 350.716 184.703 349.896 182.581 349.074C170.65 344.524 158.683 341.399 145.813 341.75C144.972 341.761 144.131 341.772 143.265 341.783C136.82 341.897 130.406 342.271 124 343C123.835 344.011 123.67 345.021 123.5 346.062C122.082 351.145 118.193 354.06 114 357C111 358 109.026 358.116 105.895 358.098C104.912 358.094 103.929 358.091 102.916 358.088C101.892 358.08 100.868 358.071 99.8126 358.062C98.7768 358.058 97.7411 358.053 96.6739 358.049C94.1159 358.037 91.558 358.021 89.0001 358C87.8301 355.66 87.8694 354.28 87.8596 351.673C87.8539 350.764 87.8482 349.856 87.8423 348.92C87.8412 347.92 87.8401 346.92 87.839 345.891C87.834 344.84 87.829 343.79 87.8239 342.707C87.8093 339.222 87.8025 335.736 87.797 332.25C87.7912 329.836 87.7855 327.423 87.7797 325.009C87.7692 319.945 87.7633 314.881 87.7599 309.816C87.7544 303.313 87.7303 296.809 87.7019 290.305C87.6833 285.319 87.6781 280.333 87.6765 275.348C87.6735 272.949 87.6654 270.55 87.6523 268.151C87.6354 264.804 87.6371 261.457 87.6436 258.109C87.6344 257.11 87.6252 256.11 87.6157 255.08C87.6213 254.172 87.6269 253.263 87.6326 252.327C87.6311 251.535 87.6297 250.743 87.6282 249.927C87.7509 249.291 87.8736 248.655 88.0001 248C91.7695 245.487 94.8185 245.655 99.1876 245.687ZM96.0001 255C96.0001 286.35 96.0001 317.7 96.0001 350C107.909 351.159 107.909 351.159 112.75 347.625C116.27 343.519 116.153 340.626 116.161 335.417C116.166 334.634 116.171 333.852 116.176 333.046C116.191 330.451 116.198 327.857 116.203 325.262C116.209 323.461 116.215 321.659 116.22 319.858C116.231 316.078 116.237 312.297 116.24 308.517C116.246 303.675 116.27 298.833 116.298 293.99C116.317 290.268 116.322 286.546 116.324 282.823C116.327 281.038 116.335 279.253 116.348 277.468C116.365 274.969 116.363 272.471 116.357 269.971C116.366 269.235 116.375 268.499 116.384 267.74C116.349 263.314 115.744 260.505 113 257C108.66 253.706 108.66 253.706 96.0001 255ZM124 269C124 290.78 124 312.56 124 335C128.455 334.505 128.455 334.505 133 334C137.167 333.765 141.327 333.725 145.5 333.688C146.557 333.658 147.614 333.629 148.703 333.6C166.66 333.46 183.01 340.278 199.563 346.5C201.735 347.307 203.908 348.113 206.081 348.918C215.703 352.489 225.307 356.107 234.891 359.781C236.35 360.338 237.808 360.895 239.267 361.451C241.869 362.444 244.464 363.452 247.055 364.471C264.321 371.098 278.673 371.18 295.716 363.829C298.379 362.578 301.014 361.283 303.645 359.965C304.616 359.486 305.588 359.007 306.589 358.514C309.667 356.996 312.74 355.467 315.813 353.938C319.839 351.944 323.867 349.955 327.895 347.965C328.895 347.47 329.895 346.975 330.926 346.465C340.696 341.637 350.527 336.942 360.365 332.257C366.44 329.359 372.501 326.432 378.56 323.499C379.968 322.818 381.378 322.137 382.787 321.458C384.893 320.443 386.998 319.425 389.102 318.406C389.726 318.106 390.349 317.806 390.992 317.497C397.777 314.408 397.777 314.408 402.875 309.25C404.27 305.22 404.171 303.096 403 299C401.13 296.093 399.146 293.573 396 292C388.476 291.333 382.076 293.472 374.938 295.691C373.662 296.079 372.385 296.466 371.109 296.852C367.748 297.87 364.392 298.902 361.036 299.936C357.051 301.162 353.062 302.374 349.072 303.586C345.811 304.577 342.552 305.575 339.297 306.587C333.194 308.478 327.091 310.266 320.887 311.8C319.232 312.226 319.232 312.226 317.544 312.66C315.503 313.178 313.453 313.665 311.395 314.112C307.347 315.161 304.81 315.838 302.359 319.355C301.018 322.011 301.018 322.011 300.028 324.68C298.642 327.808 297.189 329.058 294.108 330.454C284 333.072 274.186 329.709 264.609 326.625C263.17 326.175 261.73 325.727 260.289 325.28C256.536 324.111 252.79 322.922 249.045 321.729C245.207 320.51 241.363 319.31 237.52 318.109C230.007 315.758 222.501 313.386 215 311C214 306.25 214 306.25 214 304C222.099 305.386 229.808 307.666 237.637 310.133C238.928 310.534 240.22 310.935 241.512 311.335C246.949 313.019 252.383 314.715 257.814 316.419C261.156 317.468 264.5 318.506 267.847 319.539C269.723 320.121 271.595 320.714 273.468 321.307C281.595 323.917 281.595 323.917 290 324C293.605 321.022 295.791 318.878 296.313 314.188C295.903 310.012 295.007 308.953 292 306C288.585 304.108 284.997 302.697 281.375 301.25C279.711 300.566 279.711 300.566 278.013 299.868C274.766 298.538 271.514 297.222 268.26 295.912C264.952 294.577 261.648 293.231 258.344 291.886C248.615 287.925 238.88 283.982 229.132 280.067C225.613 278.653 222.1 277.224 218.59 275.786C216.826 275.068 215.061 274.351 213.297 273.633C212.103 273.139 212.103 273.139 210.886 272.636C184.239 261.841 151.637 262.091 124 269Z" fill="black"/>
<path d="M194.198 121.492C195.02 121.486 195.841 121.48 196.688 121.473C199.439 121.457 202.189 121.47 204.939 121.483C206.912 121.477 208.885 121.47 210.858 121.461C216.216 121.443 221.573 121.45 226.93 121.463C232.535 121.473 238.139 121.464 243.743 121.457C253.155 121.45 262.567 121.46 271.979 121.479C282.863 121.5 293.747 121.493 304.632 121.471C313.973 121.453 323.315 121.451 332.657 121.461C338.238 121.467 343.819 121.468 349.4 121.455C354.646 121.443 359.893 121.451 365.139 121.475C367.066 121.48 368.992 121.478 370.919 121.469C373.547 121.459 376.174 121.472 378.802 121.492C379.948 121.479 379.948 121.479 381.117 121.465C384.685 121.518 386.871 121.925 389.973 123.738C392.29 126.324 392.626 127.291 392.628 130.706C392.641 131.648 392.654 132.59 392.667 133.561C392.655 134.588 392.643 135.614 392.631 136.672C392.642 138.302 392.642 138.302 392.653 139.965C392.67 143.56 392.65 147.155 392.629 150.75C392.63 153.246 392.632 155.742 392.636 158.237C392.639 163.47 392.625 168.702 392.597 173.934C392.565 179.98 392.565 186.026 392.582 192.072C392.598 197.892 392.591 203.712 392.574 209.532C392.569 212.007 392.57 214.482 392.576 216.958C392.581 220.415 392.561 223.871 392.533 227.328C392.543 228.868 392.543 228.868 392.553 230.439C392.534 231.852 392.534 231.852 392.515 233.294C392.512 234.111 392.509 234.928 392.506 235.77C391.772 239.005 390.716 240.096 388 242C385.151 242.393 382.688 242.541 379.839 242.508C379.01 242.514 378.18 242.521 377.325 242.527C374.542 242.543 371.759 242.53 368.975 242.518C366.981 242.523 364.986 242.53 362.992 242.539C357.573 242.557 352.154 242.55 346.735 242.537C341.068 242.527 335.402 242.537 329.736 242.543C320.219 242.55 310.703 242.541 301.187 242.522C290.178 242.5 279.17 242.507 268.161 242.529C258.717 242.547 249.272 242.55 239.827 242.539C234.183 242.533 228.539 242.532 222.895 242.545C217.59 242.557 212.284 242.549 206.979 242.526C205.029 242.52 203.08 242.522 201.13 242.531C198.473 242.542 195.818 242.528 193.161 242.508C192.385 242.517 191.61 242.526 190.811 242.535C187.393 242.485 185.352 242.247 182.522 240.263C180.783 237.677 180.496 236.384 180.485 233.294C180.473 232.352 180.46 231.41 180.447 230.439C180.453 229.413 180.46 228.386 180.467 227.328C180.458 226.242 180.449 225.155 180.44 224.036C180.418 220.44 180.425 216.846 180.434 213.25C180.428 210.754 180.422 208.259 180.415 205.763C180.404 200.531 180.409 195.299 180.424 190.067C180.441 184.02 180.425 177.974 180.392 171.928C180.362 166.108 180.361 160.288 180.37 154.468C180.371 151.993 180.364 149.518 180.349 147.043C180.332 143.585 180.346 140.129 180.369 136.672C180.357 135.645 180.346 134.619 180.333 133.561C180.346 132.619 180.359 131.677 180.372 130.706C180.372 129.889 180.373 129.072 180.374 128.23C182.236 121.6 188.326 121.424 194.198 121.492ZM189 130C189 164.32 189 198.64 189 234C253.35 234 317.7 234 384 234C384 199.68 384 165.36 384 130C319.65 130 255.3 130 189 130Z" fill="black"/>
<path d="M221.231 139.877C222.723 139.878 222.723 139.878 224.245 139.88C225.382 139.878 226.52 139.877 227.691 139.875C228.95 139.879 230.209 139.883 231.506 139.886C232.823 139.886 234.14 139.886 235.496 139.886C239.118 139.886 242.74 139.892 246.362 139.899C250.143 139.905 253.924 139.905 257.705 139.907C264.869 139.91 272.034 139.918 279.198 139.928C287.353 139.939 295.508 139.945 303.662 139.95C320.442 139.96 337.221 139.978 354 140C354.189 140.61 354.378 141.22 354.573 141.848C354.83 142.652 355.087 143.456 355.351 144.285C355.728 145.478 355.728 145.478 356.112 146.695C357.768 150.992 360.234 154.07 364.375 156.25C365.241 156.497 366.107 156.745 367 157C369.31 157.66 371.62 158.32 374 159C374 174.18 374 189.36 374 205C370.535 205.99 370.535 205.99 367 207C362.35 208.914 359.695 210.724 357 215C356.137 217.35 355.389 219.699 354.711 222.109C354 224 354 224 352 225C350.273 225.099 348.543 225.135 346.813 225.14C345.714 225.146 344.615 225.152 343.482 225.158C342.27 225.159 341.059 225.16 339.811 225.161C338.539 225.166 337.268 225.171 335.958 225.176C332.464 225.189 328.97 225.196 325.476 225.2C323.294 225.203 321.112 225.207 318.93 225.212C312.105 225.225 305.28 225.235 298.456 225.239C290.573 225.243 282.691 225.261 274.808 225.29C268.718 225.311 262.628 225.322 256.538 225.323C252.899 225.324 249.261 225.33 245.622 225.348C241.564 225.367 237.506 225.363 233.448 225.356C232.24 225.366 231.033 225.375 229.789 225.384C228.684 225.379 227.579 225.373 226.441 225.367C225.481 225.369 224.521 225.37 223.532 225.372C220.55 224.934 219.183 224.043 217 222C216.312 220.133 216.312 220.133 216 218.125C215.169 214.197 213.939 211.855 211 209C208.148 207.535 205.343 206.814 202.25 205.937C199 205 199 205 198 204C197.897 202.629 197.861 201.254 197.855 199.879C197.848 199.005 197.842 198.13 197.835 197.229C197.834 196.278 197.833 195.327 197.832 194.348C197.829 193.377 197.825 192.407 197.822 191.407C197.817 189.35 197.814 187.293 197.814 185.236C197.812 182.079 197.794 178.924 197.775 175.767C197.772 173.773 197.77 171.779 197.769 169.785C197.762 168.836 197.755 167.887 197.748 166.909C197.751 166.032 197.754 165.154 197.757 164.25C197.755 163.476 197.754 162.702 197.753 161.904C198 160 198 160 200 158C201.953 157.543 201.953 157.543 204.25 157.187C209.008 156.17 211.719 154.749 215 151C216.032 148.392 216.792 145.833 217.457 143.109C218.188 140.268 218.27 140.04 221.231 139.877ZM225 148C223.35 151.3 221.7 154.6 220 158C215.453 162.749 212.569 163.536 206 166C206 176.56 206 187.12 206 198C210.455 199.98 210.455 199.98 215 202C221.289 206.153 221.582 208.31 225 216C265.59 216 306.18 216 348 216C348.99 213.69 349.98 211.38 351 209C355.302 202.482 358.144 201.928 366 198C366 187.44 366 176.88 366 166C362.7 164.35 359.4 162.7 356 161C351.23 156.315 350.184 154.553 348 148C307.41 148 266.82 148 225 148Z" fill="black"/>
<path d="M304.227 158.473C310.773 163.659 314.445 169.517 315.477 177.848C315.93 186.061 315.151 193.304 310 200C304.205 206.423 298.61 210.43 289.961 211.309C281.499 211.636 274.518 210.539 267.746 205.234C260.701 198.643 257.388 191.818 256.75 182.25C256.872 174.171 260.205 167.01 265.719 161.184C276.774 150.677 291.599 150.121 304.227 158.473ZM269.445 169.086C265.125 174.808 265.402 181.128 266 188C268.128 194.159 272.181 198.166 277.812 201.313C283.365 203.875 288.259 203.711 294.062 202C299.772 199.635 303.314 194.785 306.438 189.625C307.869 182.943 307.785 176.834 304.328 170.82C300.291 165.287 295.805 162.237 289 161C280.777 160.125 275.052 163.375 269.445 169.086Z" fill="black"/>
<path d="M348 171C350.894 173.3 351.828 174.483 353 178C353.345 183.352 353.476 186.655 350 191C346.71 194.29 343.594 194.844 339 195C335.486 193.887 332.913 192.791 330.125 190.375C328.092 186.082 327.289 181.61 328.555 176.965C330.245 173.443 332.186 171.547 335.75 169.938C340.186 168.597 343.811 169.086 348 171ZM338 178C336.802 180.329 336.802 180.329 336 183C336.99 184.485 336.99 184.485 338 186C340.5 186.417 340.5 186.417 343 186C343.66 185.34 344.32 184.68 345 184C344.71 180.693 344.71 180.693 343 178C341.334 177.959 339.666 177.957 338 178Z" fill="black"/>
<path d="M239 171C242.269 173.991 243.734 176.156 245.062 180.375C244.981 185.075 243.908 188.292 241 192C237.226 194.35 234.87 195 230.437 195C226.113 193.742 224.207 192.13 221 189C219.133 185.266 219.451 181.066 220 177C221.722 173.349 224.259 171.395 227.812 169.5C232.003 168.843 235.146 169.2 239 171ZM230 178C229.34 178.66 228.68 179.32 228 180C228.29 183.307 228.29 183.307 230 186C232.5 186.167 232.5 186.167 235 186C236.27 184.947 236.27 184.947 236.187 182.563C236.268 179.833 236.268 179.833 234 178C232.68 178 231.36 178 230 178Z" fill="black"/>
<path d="M297 170C297.66 170.66 298.32 171.32 299 172C298.601 178.297 294.05 181.611 289.812 185.813C288.678 186.995 288.678 186.995 287.521 188.201C286.407 189.318 286.407 189.318 285.27 190.457C284.595 191.137 283.921 191.818 283.226 192.519C280.353 194.431 278.38 194.274 275 194C274.271 191.283 274.271 191.283 274 188C275.459 185.667 275.459 185.667 277.664 183.477C278.457 182.684 279.25 181.891 280.066 181.074C280.911 180.266 281.755 179.458 282.625 178.625C283.446 177.794 284.267 176.962 285.113 176.106C292.101 169.253 292.101 169.253 297 170Z" fill="black"/>
<path d="M295 186.875C298 187 298 187 299 188C299.188 190.438 299.188 190.438 299 193C298.34 193.66 297.68 194.32 297 195C292.444 194.444 292.444 194.444 291 193C290.875 190.5 290.875 190.5 291 188C292 187 292 187 295 186.875Z" fill="black"/>
<path d="M276 169C278.625 169.375 278.625 169.375 281 170C281.688 172.312 281.688 172.312 282 175C280.562 176.812 280.562 176.812 279 178C276.525 177.01 276.525 177.01 274 176C273.875 173.625 273.875 173.625 274 171C274.66 170.34 275.32 169.68 276 169Z" fill="black"/>
</svg>
