<svg width="500" height="500" viewBox="0 0 500 500" fill="none" xmlns="http://www.w3.org/2000/svg">
<path d="M251 68C255.284 68.2944 257.221 69.8373 260.043 73.0007C260.733 73.8047 260.733 73.8047 261.437 74.625C262.175 75.4377 262.175 75.4377 262.927 76.2668C264.973 78.5415 266.817 80.6999 268.414 83.3164C269.809 85.59 270.636 86.7088 273 88C274.975 88.0041 276.95 87.9979 278.923 87.9094C288.939 87.4922 288.939 87.4922 293.415 90.7671C296.689 93.8582 299.685 97.0853 302.546 100.562C306.474 105.178 308.833 107.499 315.035 108.062C316.69 108.083 318.347 108.077 320 108C320.027 110.146 320.046 112.292 320.062 114.438C320.074 115.632 320.086 116.827 320.097 118.059C320 121 320 121 319 122C316.672 122.368 314.338 122.702 312 123C312.002 124 312.004 125 312.007 126.03C312.027 135.434 312.042 144.837 312.052 154.24C312.057 159.075 312.064 163.91 312.075 168.745C312.086 173.407 312.092 178.069 312.095 182.731C312.097 184.513 312.1 186.296 312.106 188.079C312.113 190.567 312.114 193.055 312.113 195.543C312.117 196.287 312.121 197.032 312.124 197.799C312.114 202.886 312.114 202.886 311 204C309.497 204.098 307.989 204.126 306.482 204.127C305.507 204.13 304.531 204.133 303.525 204.136C302.445 204.133 301.366 204.131 300.254 204.129C299.124 204.131 297.994 204.133 296.83 204.135C293.074 204.139 289.318 204.136 285.562 204.133C282.965 204.133 280.368 204.134 277.772 204.136C272.321 204.137 266.87 204.135 261.419 204.13C255.108 204.125 248.798 204.127 242.488 204.132C236.428 204.137 230.369 204.137 224.309 204.134C221.725 204.133 219.141 204.134 216.558 204.136C212.954 204.139 209.35 204.135 205.746 204.129C204.666 204.131 203.587 204.133 202.475 204.136C201.499 204.133 200.523 204.13 199.517 204.127C198.664 204.127 197.811 204.126 196.932 204.126C195 204 195 204 194 203C193.905 200.505 193.874 198.038 193.886 195.543C193.886 194.762 193.886 193.982 193.886 193.178C193.887 190.586 193.894 187.994 193.902 185.402C193.904 183.61 193.905 181.818 193.906 180.026C193.91 175.299 193.92 170.573 193.931 165.846C193.941 161.027 193.946 156.208 193.951 151.389C193.962 141.926 193.979 132.463 194 123C192.865 122.856 191.731 122.711 190.562 122.562C187 122 187 122 186 121C185.927 118.814 185.916 116.625 185.937 114.438C185.946 113.24 185.955 112.042 185.965 110.809C185.976 109.882 185.988 108.955 186 108C187.042 108.048 187.042 108.048 188.105 108.098C192.453 108.044 195.765 107.94 199.305 105.246C201.477 102.893 203.527 100.472 205.562 98C213.986 88.5795 213.986 88.5795 219.738 88.043C222.056 88.0405 224.332 88.1846 226.644 88.3423C230.926 88.5042 233.288 88.2377 236.586 85.3555C239.238 82.6169 241.581 79.6678 243.828 76.5913C245.354 74.5189 247.039 72.6084 248.75 70.6875C249.492 69.8006 250.235 68.9137 251 68ZM252 73C250.431 74.5508 250.431 74.5508 248.812 76.5625C245.799 80.1199 242.639 83.4166 239.285 86.6523C237.885 87.8102 237.885 87.8102 238 89C247.9 89 257.8 89 268 89C266.02 86.69 264.04 84.38 262 82C261.252 81.1247 260.505 80.2495 259.734 79.3477C259.079 78.5936 258.425 77.8395 257.75 77.0625C257.085 76.2904 256.42 75.5182 255.734 74.7227C254.171 72.7651 254.171 72.7651 252 73ZM203 107C203 107.33 203 107.66 203 108C212.24 108 221.48 108 231 108C231 103.38 231 98.76 231 94C216.842 92.2799 211.69 95.9657 203 107ZM235 94C235 128.98 235 163.96 235 200C236.65 200 238.3 200 240 200C240.009 199.274 240.019 198.548 240.028 197.8C240.082 194.491 240.166 191.183 240.25 187.875C240.264 186.733 240.278 185.591 240.293 184.414C240.478 178.046 240.648 173.813 245 169C247.988 166.652 251.219 166.582 254.969 166.68C258.354 167.214 260.442 168.807 263 171C265.092 174.262 265.297 177.026 265.414 180.859C265.453 181.974 265.491 183.089 265.531 184.238C265.562 185.397 265.593 186.556 265.625 187.75C265.664 188.924 265.702 190.099 265.742 191.309C265.836 194.206 265.922 197.103 266 200C267.65 200 269.3 200 271 200C271 165.02 271 130.04 271 94C259.12 94 247.24 94 235 94ZM275 94C275 98.62 275 103.24 275 108C284.24 108 293.48 108 303 108C301.02 105.69 299.04 103.38 297 101C296.475 100.269 295.951 99.5382 295.41 98.7852C293.719 96.6241 292.413 95.3514 290 94C284.926 93.4129 280.081 93.588 275 94ZM189 112C189 113.65 189 115.3 189 117C202.86 117 216.72 117 231 117C231 115.35 231 113.7 231 112C217.14 112 203.28 112 189 112ZM275 112C275 113.65 275 115.3 275 117C288.86 117 302.72 117 317 117C317 115.35 317 113.7 317 112C303.14 112 289.28 112 275 112ZM199 122C199 147.74 199 173.48 199 200C209.56 200 220.12 200 231 200C231 174.26 231 148.52 231 122C220.44 122 209.88 122 199 122ZM275 122C275 147.74 275 173.48 275 200C285.56 200 296.12 200 307 200C307 174.26 307 148.52 307 122C296.44 122 285.88 122 275 122ZM246 173C243.734 176.399 243.762 177.563 243.805 181.543C243.811 182.616 243.817 183.689 243.824 184.795C243.841 185.914 243.858 187.034 243.875 188.188C243.884 189.319 243.893 190.45 243.902 191.615C243.926 194.41 243.962 197.205 244 200C249.94 200 255.88 200 262 200C262.108 196.103 262.187 192.21 262.25 188.312C262.3 186.658 262.3 186.658 262.351 184.971C262.482 178.606 262.482 178.606 260.199 172.793C255.389 168.871 250.706 169.235 246 173Z" fill="#202020"/>
<path d="M106 287C112.711 287.053 118.774 288.609 125 291C124.871 292.859 124.871 292.859 124 295C121.348 296.266 121.348 296.266 118.062 297.25C116.981 297.585 115.899 297.92 114.785 298.266C112 299 112 299 110 299C110.108 305.805 111.42 309.814 115.743 315.101C119.96 318.649 124.545 318.219 129.84 318.098C130.835 318.108 131.831 318.119 132.857 318.13C136.55 318.156 140.244 318.105 143.938 318.062C156.343 318.032 156.343 318.032 169 318C169 351 169 384 169 418C128.41 418 87.82 418 46 418C46 385 46 352 46 318C71.0625 318.062 71.0625 318.062 78.9377 318.153C81.0119 318.138 83.0861 318.12 85.1602 318.098C86.7582 318.134 86.7582 318.134 88.3885 318.172C92.8109 318.09 95.7915 318.013 99.2593 315.107C103.94 309.4 105.004 304.783 104.875 297.5C104.89 295.719 104.908 293.937 104.93 292.156C104.918 290.993 104.918 290.993 104.906 289.807C105 288 105 288 106 287ZM110 292C109.67 292.99 109.34 293.98 109 295C110.98 294.34 112.96 293.68 115 293C115 292.67 115 292.34 115 292C113.35 292 111.7 292 110 292ZM107 311C105.566 312.74 104.181 314.52 102.812 316.312C102.38 316.878 101.947 317.444 101.501 318.028C96.8927 324.085 92.3943 330.224 87.9114 336.374C87.3464 337.147 86.7814 337.919 86.1992 338.715C85.7025 339.397 85.2058 340.079 84.6941 340.781C82.55 343.589 80.262 346.286 78 349C68.76 349.33 59.52 349.66 50 350C50 371.12 50 392.24 50 414C63.53 414 77.06 414 91 414C91.2098 402.378 91.2098 402.378 91.3879 390.755C91.4202 389.291 91.4536 387.827 91.4883 386.363C91.4945 385.612 91.5008 384.86 91.5072 384.085C91.6721 378.047 93.0967 374.853 97.375 370.688C102.857 368.136 108.055 368.244 114 369C118.033 370.492 120.865 373.313 123 377C123.325 379.893 123.488 382.588 123.512 385.484C123.528 386.208 123.545 386.931 123.562 387.676C123.62 390.367 123.652 393.059 123.688 395.75C123.791 401.772 123.894 407.795 124 414C137.53 414 151.06 414 165 414C165 392.88 165 371.76 165 350C151.14 349.505 151.14 349.505 137 349C131.269 344.336 131.269 344.336 129.069 339.928C126.765 335.772 123.676 332.094 120.812 328.312C119.649 326.728 118.489 325.141 117.332 323.551C116.222 322.034 115.111 320.517 114 319C113.431 318.221 112.861 317.441 112.275 316.638C111.734 315.906 111.194 315.173 110.637 314.418C109.911 313.43 109.911 313.43 109.171 312.423C108.784 311.953 108.398 311.484 108 311C107.67 311 107.34 311 107 311ZM50 322C50 329.59 50 337.18 50 345C54.3375 345.271 58.6581 345.468 63 345.625C64.2207 345.709 65.4415 345.793 66.6992 345.879C73.6046 346.135 73.6046 346.135 79.4844 342.96C81.5389 340.401 83.2858 337.797 85 335C85.9009 333.799 86.8153 332.608 87.75 331.434C88.4925 330.445 89.235 329.456 90 328.438C90.7631 327.426 91.5262 326.414 92.3125 325.371C94.0966 323.349 94.0966 323.349 94 322C79.48 322 64.96 322 50 322ZM121 322C124.665 327.498 128.262 332.817 132.312 338C132.754 338.571 133.196 339.142 133.65 339.73C135.716 342.459 135.716 342.459 138 345C140 345.088 142.002 345.107 144.004 345.098C145.826 345.093 145.826 345.093 147.686 345.088C148.965 345.08 150.244 345.071 151.562 345.062C153.487 345.056 153.487 345.056 155.451 345.049C158.634 345.037 161.817 345.019 165 345C165 337.41 165 329.82 165 322C150.48 322 135.96 322 121 322ZM97 375C94.3863 378.695 94.7445 382.706 94.8047 387.047C94.8075 387.818 94.8103 388.589 94.8133 389.384C94.8244 391.839 94.8495 394.295 94.875 396.75C94.885 398.418 94.8942 400.086 94.9023 401.754C94.9244 405.836 94.9589 409.918 95 414C98.3 414 101.6 414 105 414C105.145 410.108 105.288 406.216 105.427 402.324C105.498 400.366 105.571 398.409 105.645 396.451C105.935 388.297 106.062 380.16 106 372C101.674 372 100.394 372.499 97 375ZM110 372C110 385.86 110 399.72 110 414C113.3 414 116.6 414 120 414C120.049 409.089 120.086 404.178 120.11 399.266C120.12 397.596 120.134 395.926 120.151 394.255C120.175 391.852 120.186 389.45 120.195 387.047C120.206 386.302 120.216 385.557 120.227 384.789C120.238 379.569 120.238 379.569 118 375C114.236 372.71 114.236 372.71 110 372Z" fill="#141414"/>
<path d="M407.902 293.676C417.709 299.866 425.616 307.599 429 319C429.426 321.993 429.734 324.989 430 328C430.813 327.995 431.625 327.99 432.463 327.984C436.121 327.963 439.779 327.95 443.437 327.938C444.717 327.929 445.996 327.921 447.314 327.912C448.529 327.909 449.744 327.906 450.996 327.902C452.122 327.897 453.248 327.892 454.408 327.886C457 328 457 328 458 329C458.095 331.769 458.125 334.514 458.113 337.283C458.114 338.166 458.114 339.048 458.114 339.957C458.113 342.827 458.105 345.697 458.098 348.566C458.096 350.333 458.095 352.099 458.095 353.865C458.089 360.431 458.075 366.997 458.062 373.563C458.042 388.227 458.021 402.891 458 418C413.12 418 368.24 418 322 418C321.979 403.336 321.959 388.671 321.937 373.563C321.928 368.925 321.919 364.288 321.91 359.51C321.905 353.865 321.905 353.865 321.904 351.226C321.903 349.375 321.899 347.524 321.894 345.674C321.887 342.877 321.886 340.08 321.886 337.283C321.881 336.038 321.881 336.038 321.875 334.768C321.886 329.114 321.886 329.114 323 328C325 327.912 327.002 327.893 329.004 327.902C330.219 327.906 331.434 327.909 332.685 327.912C333.965 327.921 335.244 327.929 336.562 327.938C337.846 327.942 339.129 327.947 340.451 327.951C343.634 327.963 346.817 327.98 350 328C350.063 327.131 350.063 327.131 350.126 326.244C351.064 315.662 355.97 306.067 364 299C376.108 290.376 393.973 286.674 407.902 293.676ZM360.508 308.84C355.709 315.782 354.364 323.813 353 332C339.635 332.495 339.635 332.495 326 333C326 359.73 326 386.46 326 414C341.84 414 357.68 414 374 414C374 400.47 374 386.94 374 373C384.56 373 395.12 373 406 373C406 386.53 406 400.06 406 414C421.84 414 437.68 414 454 414C454 387.27 454 360.54 454 333C445.09 332.67 436.18 332.34 427 332C426.587 329.855 426.175 327.71 425.75 325.5C423.696 316.05 420.48 308.433 413 302C395.081 291.3 374.401 291.709 360.508 308.84ZM378 377C378 389.21 378 401.42 378 414C385.92 414 393.84 414 402 414C402 401.79 402 389.58 402 377C394.08 377 386.16 377 378 377Z" fill="#0C0C0C"/>
<path d="M106 287C112.711 287.053 118.774 288.609 125 291C124.871 292.859 124.871 292.859 124 295C121.348 296.266 121.348 296.266 118.062 297.25C116.981 297.585 115.899 297.92 114.785 298.266C112 299 112 299 110 299C110.108 305.805 111.42 309.814 115.743 315.101C119.961 318.65 124.545 318.218 129.84 318.098C130.962 318.107 132.084 318.117 133.24 318.126C136.807 318.147 140.371 318.106 143.938 318.062C146.363 318.066 148.788 318.073 151.213 318.084C157.143 318.103 163.071 318.071 169 318C168.67 319.98 168.34 321.96 168 324C167.67 324 167.34 324 167 324C167 330.93 167 337.86 167 345C167.33 345 167.66 345 168 345C167.759 346.529 167.759 346.529 167.513 348.089C167.048 351.631 166.845 355.01 166.795 358.578C166.775 359.839 166.755 361.099 166.734 362.398C166.717 363.754 166.7 365.109 166.684 366.465C166.663 367.867 166.642 369.27 166.621 370.672C166.566 374.343 166.516 378.014 166.468 381.685C166.417 385.439 166.362 389.193 166.307 392.947C166.199 400.298 166.098 407.649 166 415C165.67 415 165.34 415 165 415C165 393.55 165 372.1 165 350C155.76 350 146.52 350 137 350C129.125 341 129.125 341 126.535 337.449C125.966 336.673 125.397 335.897 124.811 335.097C124.234 334.302 123.657 333.507 123.062 332.688C122.154 331.446 122.154 331.446 121.228 330.178C119.482 327.788 117.74 325.395 116 323C115.106 321.773 114.211 320.547 113.316 319.32C111.541 316.883 109.768 314.443 108 312C104.346 315.474 101.357 319.091 98.5 323.25C94.4609 329.017 90.2795 334.659 86 340.25C85.436 340.989 84.8721 341.728 84.291 342.489C80.2613 347.739 80.2613 347.739 78 350C68.76 350 59.52 350 50 350C50 371.12 50 392.24 50 414C63.53 414 77.06 414 91 414C91 402.12 91 390.24 91 378C91.33 378 91.66 378 92 378C92 390.21 92 402.42 92 415C77.81 415 63.62 415 49 415C48.9394 410.438 48.8788 405.876 48.8164 401.176C48.7759 398.282 48.7351 395.388 48.6934 392.494C48.6271 387.903 48.5619 383.312 48.5027 378.721C48.4549 375.019 48.4025 371.316 48.3471 367.614C48.3267 366.203 48.308 364.792 48.2909 363.381C48.2667 361.402 48.2361 359.422 48.2053 357.443C48.1898 356.317 48.1742 355.191 48.1582 354.031C48.078 351.023 48.078 351.023 47.4247 348.222C47 346 47 346 48 344C48.1518 342.407 48.249 340.809 48.3164 339.211C48.3583 338.27 48.4002 337.329 48.4434 336.359C48.4827 335.375 48.522 334.39 48.5625 333.375C48.6057 332.382 48.6489 331.39 48.6934 330.367C48.7996 327.912 48.9016 325.456 49 323C48.34 323 47.68 323 47 323C46.67 321.35 46.34 319.7 46 318C46.6234 318.007 47.2468 318.015 47.8891 318.023C54.395 318.092 60.8988 318.097 67.405 318.067C69.8308 318.064 72.2567 318.077 74.6824 318.106C78.1764 318.146 81.6661 318.127 85.1602 318.098C86.7793 318.135 86.7793 318.135 88.4312 318.172C92.8375 318.089 95.8041 318.002 99.2593 315.107C103.94 309.4 105.004 304.783 104.875 297.5C104.89 295.719 104.908 293.937 104.93 292.156C104.918 290.993 104.918 290.993 104.906 289.807C105 288 105 288 106 287ZM110 292C109.67 292.99 109.34 293.98 109 295C110.98 294.34 112.96 293.68 115 293C115 292.67 115 292.34 115 292C113.35 292 111.7 292 110 292ZM50 322C50 329.59 50 337.18 50 345C54.3375 345.271 58.6581 345.468 63 345.625C64.2207 345.709 65.4415 345.793 66.6992 345.879C73.6046 346.135 73.6046 346.135 79.4844 342.96C81.5389 340.401 83.2858 337.797 85 335C85.9009 333.799 86.8153 332.608 87.75 331.434C88.4925 330.445 89.235 329.456 90 328.438C90.7631 327.426 91.5262 326.414 92.3125 325.371C94.0966 323.349 94.0966 323.349 94 322C79.48 322 64.96 322 50 322ZM121 322C124.665 327.498 128.262 332.817 132.312 338C132.754 338.571 133.196 339.142 133.65 339.73C135.716 342.459 135.716 342.459 138 345C140 345.088 142.002 345.107 144.004 345.098C145.826 345.093 145.826 345.093 147.686 345.088C148.965 345.08 150.244 345.071 151.562 345.062C153.487 345.056 153.487 345.056 155.451 345.049C158.634 345.037 161.817 345.019 165 345C165 337.41 165 329.82 165 322C150.48 322 135.96 322 121 322Z" fill="#272727"/>
<path d="M159 154C171.542 159.134 171.542 159.134 177 162C177.784 162.392 178.567 162.784 179.375 163.188C179.911 163.456 180.447 163.724 181 164C180.67 165.65 180.34 167.3 180 169C179.34 169 178.68 169 178 169C178 169.66 178 170.32 178 171C176.256 172.237 174.453 173.391 172.625 174.5C168.57 176.942 168.57 176.942 165 180C162.375 179.625 162.375 179.625 160 179C160.385 176.461 160.701 175.272 162.629 173.516C163.267 173.098 163.905 172.68 164.562 172.25C165.203 171.822 165.844 171.394 166.504 170.953C166.998 170.639 167.491 170.324 168 170C153.354 170.371 139.984 176.623 129 186C128.34 186 127.68 186 127 186C127 186.66 127 187.32 127 188C125.356 189.689 123.686 191.353 122 193C121.443 193.763 120.886 194.526 120.312 195.312C119.879 195.869 119.446 196.426 119 197C118.34 197 117.68 197 117 197C116.741 197.691 116.482 198.382 116.215 199.094C114.854 202.349 113.223 205.387 111.562 208.5C103.81 223.824 102.282 242.407 107 259C108.013 261.915 109.139 264.755 110.293 267.617C111 270 111 270 110 273C108.187 272.938 108.187 272.938 106 272C104.767 269.634 103.87 267.498 103 265C102.613 264.041 102.613 264.041 102.219 263.062C95.4608 245.222 97.389 225.699 104.504 208.328C108.306 200.248 113.01 193.595 119 187C119.81 186.051 119.81 186.051 120.637 185.082C132.384 172.151 149.367 166.348 166 163C164.886 162.567 163.772 162.134 162.625 161.688C159 160 159 160 157 157C157.66 156.01 158.32 155.02 159 154Z" fill="#232323"/>
<path d="M351.938 160.562C361.132 163.877 371.285 168.778 378 176C378.66 176.33 379.32 176.66 380 177C380 177.66 380 178.32 380 179C380.66 179 381.32 179 382 179C385 182.462 385 182.462 385 185C385.66 185 386.32 185 387 185C387.103 185.639 387.206 186.279 387.312 186.937C387.539 187.618 387.766 188.299 388 189C388.99 189.33 389.98 189.66 391 190C393.322 193.834 395.11 197.939 397 202C397.557 203.114 398.114 204.227 398.688 205.375C400.765 211.114 401.879 217.011 403 223C403.159 223.762 403.317 224.524 403.48 225.309C405.299 236.284 402.668 248.527 398.805 258.777C397.887 260.919 397.887 260.919 398 263C398.887 262.196 399.774 261.391 400.688 260.562C403.383 258.296 405.421 257.316 409 257C408.938 259.187 408.938 259.187 408 262C405.433 264.386 402.611 267 399 267C399 267.66 399 268.32 399 269C397.391 270.289 397.391 270.289 395.25 271.625C394.206 272.294 394.206 272.294 393.141 272.977C391 274 391 274 387 274C385.816 265.976 384.715 258.135 385 250C385.99 249.67 386.98 249.34 388 249C388.99 249.495 388.99 249.495 390 250C390.379 252.031 390.379 252.031 390.562 254.5C390.579 257.55 390.579 257.55 392 260C399.656 241.557 398.582 222.302 391.309 204C389.774 200.481 387.972 197.287 386 194C386 193.34 386 192.68 386 192C385.34 192 384.68 192 384 192C384 191.34 384 190.68 384 190C383.34 190 382.68 190 382 190C379 186.538 379 186.538 379 184C378.34 184 377.68 184 377 184C377 183.34 377 182.68 377 182C376.34 182 375.68 182 375 182C373.667 180.667 372.333 179.333 371 178C370.092 177.464 369.185 176.927 368.25 176.375C367.507 175.921 366.765 175.467 366 175C366 174.34 366 173.68 366 173C363.525 172.505 363.525 172.505 361 172C361 171.34 361 170.68 361 170C360.291 169.875 359.582 169.75 358.852 169.621C355.912 168.981 353.207 168.074 350.375 167.062C345.406 165.369 340.554 164.219 335.375 163.394C333.209 163.035 331.12 162.564 329 162C329 160.68 329 159.36 329 158C334.654 155.173 345.999 158.782 351.938 160.562Z" fill="#222222"/>
<path d="M182 362C189.781 363.373 196.832 366.798 204 370C203.67 371.65 203.34 373.3 203 375C198.404 374.081 194.174 372.087 190 370C190 370.66 190 371.32 190 372C190.66 372 191.32 372 192 372C197 377.476 197 377.476 197 380C197.536 380.227 198.072 380.454 198.625 380.688C201 382 201 382 203.5 384.188C215.966 394.748 233.616 400.894 250 400C250.723 399.97 251.446 399.941 252.191 399.91C263.862 399.142 274.006 394.788 284.199 389.391C287 388 287 388 289 388C289 387.34 289 386.68 289 386C292.461 383 292.461 383 295 383C295 382.34 295 381.68 295 381C295.66 381 296.32 381 297 381C297 380.34 297 379.68 297 379C297.66 379 298.32 379 299 379C299 378.34 299 377.68 299 377C299.66 377 300.32 377 301 377C301.227 376.484 301.454 375.969 301.687 375.438C303.498 372.076 305.74 369.071 308 366C309.485 366.495 309.485 366.495 311 367C311.333 371.135 310.68 373.066 308.125 376.312C307.591 377.01 307.058 377.707 306.508 378.426C306.01 378.945 305.513 379.465 305 380C304.34 380 303.68 380 303 380C303 380.66 303 381.32 303 382C302.34 382 301.68 382 301 382C301 382.66 301 383.32 301 384C300.34 384 299.68 384 299 384C298.505 385.485 298.505 385.485 298 387C281.572 401.704 260.553 406.075 239.15 405.139C222.844 404.084 209.127 396.521 197 386C196.01 385.34 195.02 384.68 194 384C194 383.34 194 382.68 194 382C193.34 382 192.68 382 192 382C190.627 380.708 189.29 379.376 188 378C188 380.97 188 383.94 188 387C186.68 387.33 185.36 387.66 184 388C180.148 384.148 180.853 372.951 180.812 367.75C180.846 363.154 180.846 363.154 182 362Z" fill="#1E1E1E"/>
<path d="M407.902 293.676C417.709 299.866 425.616 307.599 429 319C429.495 323.455 429.495 323.455 430 328C438.91 328 447.82 328 457 328C457 328.33 457 328.66 457 329C456.278 329.025 455.556 329.05 454.813 329.076C451.562 329.192 448.312 329.314 445.062 329.438C443.926 329.477 442.79 329.516 441.619 329.557C440.54 329.599 439.46 329.64 438.348 329.684C436.847 329.739 436.847 329.739 435.317 329.795C433.039 329.747 433.039 329.747 432 331C439.59 331.33 447.18 331.66 455 332C455 359.39 455 386.78 455 415C438.83 415 422.66 415 406 415C406 414.67 406 414.34 406 414C421.84 414 437.68 414 454 414C454 387.27 454 360.54 454 333C445.09 333 436.18 333 427 333C425 326 425 326 424.176 322.789C421.473 312.882 417.772 306.089 408.938 300.563C399.557 295.226 388.94 294.177 378.535 296.91C369.235 300.558 362.271 305.829 358 315C356.793 318.625 355.893 322.288 355 326C354.34 328.31 353.68 330.62 353 333C344.09 333 335.18 333 326 333C326 359.73 326 386.46 326 414C341.84 414 357.68 414 374 414C374 414.33 374 414.66 374 415C357.83 415 341.66 415 325 415C325 387.28 325 359.56 325 331C332.92 330.67 340.84 330.34 349 330C336.13 329.505 336.13 329.505 323 329C323 328.67 323 328.34 323 328C331.91 328 340.82 328 350 328C350.33 325.03 350.66 322.06 351 319C355.33 307.011 362.559 298.552 374 293C383.549 288.965 398.606 289.003 407.902 293.676Z" fill="#474747"/>
<path d="M413 373C423.89 373 434.78 373 446 373C446.021 376.609 446.041 380.219 446.063 383.938C446.072 385.077 446.081 386.216 446.09 387.39C446.093 388.281 446.095 389.172 446.098 390.09C446.103 391.006 446.108 391.923 446.114 392.867C446 395 446 395 445 396C442.721 396.1 440.438 396.131 438.156 396.133C437.472 396.134 436.788 396.135 436.083 396.136C434.634 396.136 433.184 396.135 431.735 396.13C429.51 396.125 427.284 396.13 425.059 396.137C423.654 396.136 422.249 396.135 420.844 396.133C419.557 396.132 418.27 396.131 416.944 396.129C414 396 414 396 413 395C412.913 393.365 412.893 391.727 412.902 390.09C412.905 389.199 412.907 388.308 412.91 387.39C412.919 386.251 412.928 385.111 412.938 383.938C412.958 380.328 412.979 376.719 413 373ZM417 377C417.33 381.95 417.66 386.9 418 392C425.92 392 433.84 392 442 392C442 387.05 442 382.1 442 377C433.75 377 425.5 377 417 377Z" fill="#1E1E1E"/>
<path d="M334 373C344.89 373 355.78 373 367 373C367.021 376.609 367.041 380.219 367.063 383.938C367.072 385.077 367.081 386.216 367.09 387.39C367.093 388.281 367.095 389.172 367.098 390.09C367.103 391.006 367.108 391.923 367.114 392.867C367 395 367 395 366 396C363.721 396.1 361.438 396.131 359.156 396.133C358.472 396.134 357.788 396.135 357.083 396.136C355.634 396.136 354.184 396.135 352.735 396.13C350.51 396.125 348.284 396.13 346.059 396.137C344.654 396.136 343.249 396.135 341.844 396.133C340.557 396.132 339.27 396.131 337.944 396.129C335 396 335 396 334 395C333.913 393.365 333.893 391.727 333.902 390.09C333.905 389.199 333.907 388.308 333.91 387.39C333.919 386.251 333.928 385.111 333.938 383.938C333.958 380.328 333.979 376.719 334 373ZM338 377C338 381.95 338 386.9 338 392C345.92 392 353.84 392 362 392C362.33 387.05 362.66 382.1 363 377C354.75 377 346.5 377 338 377Z" fill="#202020"/>
<path d="M420.844 340.867C421.528 340.866 422.212 340.865 422.917 340.864C424.367 340.864 425.816 340.866 427.265 340.87C429.491 340.875 431.716 340.87 433.942 340.863C435.346 340.864 436.751 340.865 438.156 340.867C439.443 340.868 440.731 340.87 442.057 340.871C445 341 445 341 446 342C446.087 343.635 446.107 345.273 446.098 346.91C446.095 347.9 446.091 348.889 446.088 349.908C446.075 351.47 446.075 351.47 446.063 353.063C446.058 354.107 446.054 355.152 446.049 356.229C446.037 358.819 446.021 361.41 446 364C441.461 364.025 436.922 364.043 432.383 364.055C430.838 364.06 429.293 364.067 427.747 364.076C425.531 364.088 423.314 364.093 421.098 364.098C420.056 364.106 420.056 364.106 418.992 364.113C417.328 364.114 415.663 364.062 414 364C412.378 362.378 412.87 360.58 412.867 358.344C412.866 357.404 412.865 356.464 412.863 355.496C412.867 354.508 412.871 353.519 412.875 352.5C412.871 351.511 412.867 350.523 412.863 349.504C412.865 348.564 412.866 347.625 412.867 346.656C412.868 345.788 412.87 344.92 412.871 344.026C413.161 339.475 417.123 340.871 420.844 340.867ZM418 345C417.505 352.425 417.505 352.425 417 360C425.25 360 433.5 360 442 360C442 355.05 442 350.1 442 345C434.08 345 426.16 345 418 345Z" fill="#1C1C1C"/>
<path d="M341.844 340.867C342.528 340.866 343.213 340.865 343.918 340.864C345.367 340.864 346.816 340.865 348.265 340.87C350.491 340.875 352.716 340.87 354.942 340.863C356.347 340.864 357.752 340.865 359.156 340.867C360.444 340.868 361.731 340.869 363.057 340.871C366 341 366 341 367 342C367.099 343.549 367.131 345.103 367.133 346.656C367.135 348.066 367.135 348.066 367.137 349.504C367.133 350.493 367.129 351.481 367.125 352.5C367.131 353.983 367.131 353.983 367.137 355.496C367.136 356.436 367.134 357.375 367.133 358.344C367.132 359.212 367.131 360.08 367.13 360.975C367 363 367 363 366 364C363.625 364.088 361.278 364.115 358.903 364.098C357.839 364.095 357.839 364.095 356.755 364.093C354.482 364.088 352.21 364.075 349.938 364.062C348.401 364.057 346.864 364.053 345.326 364.049C341.551 364.038 337.776 364.02 334 364C333.971 360.354 333.953 356.708 333.938 353.062C333.929 352.022 333.921 350.981 333.912 349.908C333.908 348.424 333.908 348.424 333.903 346.91C333.897 345.994 333.892 345.077 333.887 344.133C334.135 339.469 337.998 340.87 341.844 340.867ZM338 345C338 349.95 338 354.9 338 360C346.25 360 354.5 360 363 360C362.67 355.05 362.34 350.1 362 345C354.08 345 346.16 345 338 345Z" fill="#1E1E1E"/>
<path d="M374 341C384.56 341 395.12 341 406 341C406 348.59 406 356.18 406 364C395.44 364 384.88 364 374 364C374 356.41 374 348.82 374 341ZM378 345C378 349.95 378 354.9 378 360C385.92 360 393.84 360 402 360C402 355.05 402 350.1 402 345C394.08 345 386.16 345 378 345Z" fill="#1A1A1A"/>
<path d="M257 102C260.843 104.031 263.951 106.118 266 110C267.023 114.53 267.393 116.865 265.875 121.25C263.467 124.782 260.82 127.09 257 129C250.893 129.509 247.87 129.078 243 125C240.002 122.106 239.307 119.161 238.938 115.024C239.039 111.724 240.162 109.695 242 107C246.824 102.647 250.456 101.111 257 102ZM246 109C243.508 112.738 243.542 114.573 244 119C245.409 121.99 245.409 121.99 248 124C251.949 125.149 254.03 125.431 257.812 123.75C260.21 122.013 260.21 122.013 262 119C262.447 114.98 262.382 112.704 260.438 109.125C255.622 104.927 250.893 105.086 246 109Z" fill="#2A2A2A"/>
<path d="M389 303C389.99 303.33 390.98 303.66 392 304C392 307.63 392 311.26 392 315C393.774 314.979 395.548 314.959 397.375 314.938C402.75 314.875 402.75 314.875 405 316C404.67 317.32 404.34 318.64 404 320C400.04 320 396.08 320 392 320C392 323.96 392 327.92 392 332C390.68 332 389.36 332 388 332C388 328.04 388 324.08 388 320C384.04 320 380.08 320 376 320C375.67 318.68 375.34 317.36 375 316C377.645 314.678 379.678 314.903 382.625 314.938C384.129 314.951 384.129 314.951 385.664 314.965C386.435 314.976 387.206 314.988 388 315C387.988 314.218 387.977 313.435 387.965 312.629C387.956 311.617 387.947 310.605 387.938 309.562C387.926 308.553 387.914 307.544 387.902 306.504C388 304 388 304 389 303Z" fill="#282828"/>
<path d="M250.727 137.863C251.852 137.869 251.852 137.869 253 137.875C253.75 137.871 254.501 137.867 255.274 137.863C260.874 137.873 260.874 137.873 262 139C262.087 140.343 262.107 141.69 262.098 143.035C262.095 143.764 262.093 144.492 262.09 145.242C262.081 146.173 262.072 147.104 262.063 148.063C262.042 151.012 262.021 153.961 262 157C256.06 157 250.12 157 244 157C243.98 154.051 243.959 151.101 243.938 148.063C243.929 147.132 243.92 146.201 243.91 145.242C243.908 144.514 243.905 143.786 243.903 143.035C243.897 142.286 243.892 141.537 243.887 140.766C244.147 136.723 247.426 137.869 250.727 137.863ZM248 143C248 146.3 248 149.6 248 153C251.3 153 254.6 153 258 153C258 149.7 258 146.4 258 143C254.7 143 251.4 143 248 143Z" fill="#1D1D1D"/>
<path d="M46 321C46.33 321.66 46.66 322.32 47 323C47.66 323 48.32 323 49 323C49.0292 326.396 49.0469 329.792 49.0625 333.188C49.0709 334.147 49.0793 335.107 49.0879 336.096C49.0911 337.027 49.0943 337.958 49.0977 338.918C49.1029 339.772 49.1081 340.625 49.1135 341.505C49 344 49 344 48.5 346.242C47.9234 349.422 47.8803 352.393 47.8865 355.626C47.8863 356.271 47.8862 356.915 47.886 357.579C47.8867 359.695 47.8945 361.81 47.9023 363.926C47.9042 365.398 47.9056 366.871 47.9066 368.344C47.9104 372.209 47.9203 376.073 47.9313 379.938C47.9416 383.887 47.9461 387.835 47.9512 391.783C47.9619 399.522 47.9789 407.261 48 415C47.01 415.495 47.01 415.495 46 416C46 384.65 46 353.3 46 321Z" fill="#0A0A0A"/>
<path d="M168 321C168.33 321 168.66 321 169 321C169 352.35 169 383.7 169 416C167 414 167 414 166.759 411.178C166.764 409.974 166.768 408.771 166.773 407.531C166.773 406.867 166.772 406.204 166.772 405.52C166.773 403.323 166.789 401.127 166.805 398.93C166.808 397.408 166.811 395.886 166.813 394.365C166.821 390.356 166.841 386.348 166.863 382.34C166.883 378.252 166.892 374.163 166.902 370.074C166.924 362.049 166.958 354.025 167 346C166.67 346 166.34 346 166 346C165.942 342.208 165.906 338.417 165.875 334.625C165.858 333.545 165.841 332.465 165.824 331.352C165.818 330.32 165.811 329.289 165.805 328.227C165.794 327.273 165.784 326.32 165.773 325.338C166 323 166 323 168 321Z" fill="#0B0B0B"/>
<path d="M112 337C115.662 339.649 116.841 341.01 117.562 345.5C116.919 349.505 115.841 351.159 113 354C109.9 355.55 107.421 355.29 104 355C101.247 353.204 99.4737 351.947 98 349C97.625 345.687 97.625 345.687 98 342C102.544 336.499 105.033 335.347 112 337ZM103.75 341.687C101.713 343.866 101.713 343.866 102.125 346.625C102.865 349.144 102.865 349.144 105 351C107.846 351.365 109.386 351.402 111.812 349.812C113.441 347.328 113.51 345.913 113 343C111.27 341.098 111.27 341.098 109 340C105.931 339.7 105.931 339.7 103.75 341.687Z" fill="#2E2E2E"/>
<path d="M63.4375 357.813C65.199 357.791 65.199 357.791 66.9961 357.77C70 358 70 358 72 360C72.2305 362.785 72.2305 362.785 72.1875 366.063C72.1811 367.147 72.1746 368.231 72.168 369.348C72 372 72 372 71 373C68.4695 373.073 65.967 373.093 63.4375 373.063C62.3711 373.056 62.3711 373.056 61.2832 373.049C59.5221 373.037 57.761 373.019 56 373C55.9731 370.688 55.9537 368.375 55.9375 366.063C55.9259 364.775 55.9143 363.487 55.9023 362.16C56.0726 356.649 58.5002 357.84 63.4375 357.813ZM60 363C60 364.98 60 366.96 60 369C62.31 369 64.62 369 67 369C67 367.02 67 365.04 67 363C64.69 363 62.38 363 60 363Z" fill="#2B2B2B"/>
<path d="M59.8711 385.867C61.048 385.87 62.2249 385.872 63.4375 385.875C65.199 385.871 65.199 385.871 66.9961 385.867C70 386 70 386 72 387C72 391.29 72 395.58 72 400C69.1337 401.433 66.6276 401.132 63.4375 401.125C61.6721 401.129 61.6721 401.129 59.8711 401.133C57 401 57 401 56 400C55.9011 397.835 55.8703 395.667 55.875 393.5C55.8724 392.314 55.8698 391.128 55.8672 389.906C56.0437 386.044 56.0437 386.044 59.8711 385.867ZM60 391C60 392.98 60 394.96 60 397C62.31 397 64.62 397 67 397C67 395.02 67 393.04 67 391C64.69 391 62.38 391 60 391Z" fill="#2B2B2B"/>
<path d="M140.125 385.867C141.404 385.87 142.682 385.872 144 385.875C145.279 385.872 146.557 385.87 147.875 385.867C151 386 151 386 152 387C152.099 389.165 152.13 391.333 152.125 393.5C152.129 395.279 152.129 395.279 152.133 397.094C152 400 152 400 151 401C148.668 401.099 146.334 401.13 144 401.125C142.721 401.128 141.443 401.13 140.125 401.133C137 401 137 401 136 400C135.901 397.835 135.87 395.667 135.875 393.5C135.872 392.314 135.87 391.128 135.867 389.906C136.051 385.879 136.062 386.04 140.125 385.867ZM140 391C140 392.98 140 394.96 140 397C142.64 397 145.28 397 148 397C148 395.02 148 393.04 148 391C145.36 391 142.72 391 140 391Z" fill="#2D2D2D"/>
<path d="M144 357.875C145.609 357.871 145.609 357.871 147.25 357.867C150 358 150 358 152 359C152.027 361.146 152.046 363.292 152.062 365.437C152.074 366.632 152.086 367.827 152.097 369.058C152 372 152 372 151 373C148.668 373.099 146.334 373.13 144 373.125C142.721 373.127 141.442 373.13 140.125 373.133C137 373 137 373 136 372C135.927 369.814 135.916 367.625 135.937 365.437C135.946 364.24 135.955 363.042 135.965 361.808C135.976 360.882 135.988 359.955 136 359C138.731 357.635 140.955 357.868 144 357.875ZM140 363C140 364.98 140 366.96 140 369C142.64 369 145.28 369 148 369C148 367.02 148 365.04 148 363C145.36 363 142.72 363 140 363Z" fill="#2C2C2C"/>
<path d="M287.906 178.867C289.092 178.87 290.278 178.872 291.5 178.875C292.686 178.872 293.872 178.87 295.094 178.867C298 179 298 179 299 180C299.099 181.998 299.13 184 299.125 186C299.128 187.093 299.13 188.186 299.133 189.312C299 192 299 192 298 193C295.647 193.073 293.292 193.084 290.938 193.062C289.647 193.053 288.357 193.044 287.027 193.035C286.028 193.024 285.029 193.012 284 193C283.973 190.854 283.954 188.708 283.938 186.562C283.926 185.368 283.914 184.173 283.902 182.941C284.032 179.044 284.032 179.044 287.906 178.867ZM288 183C288 184.98 288 186.96 288 189C289.98 189 291.96 189 294 189C294 187.02 294 185.04 294 183C292.02 183 290.04 183 288 183Z" fill="#222222"/>
<path d="M210.906 178.867C212.092 178.87 213.278 178.872 214.5 178.875C215.686 178.872 216.872 178.87 218.094 178.867C221 179 221 179 222 180C222.073 182.186 222.084 184.375 222.062 186.562C222.053 187.76 222.044 188.958 222.035 190.191C222.024 191.118 222.012 192.045 222 193C219.688 193.027 217.375 193.046 215.062 193.062C213.775 193.074 212.487 193.086 211.16 193.098C208 193 208 193 207 192C206.901 190.002 206.87 188 206.875 186C206.872 184.907 206.87 183.814 206.867 182.688C207.052 178.946 207.136 179.039 210.906 178.867ZM212 183C212 184.98 212 186.96 212 189C213.98 189 215.96 189 218 189C218 187.02 218 185.04 218 183C216.02 183 214.04 183 212 183Z" fill="#202020"/>
<path d="M287.906 153.867C289.092 153.87 290.278 153.872 291.5 153.875C292.686 153.872 293.872 153.87 295.094 153.867C298 154 298 154 299 155C299.099 156.998 299.13 159 299.125 161C299.128 162.093 299.13 163.186 299.133 164.312C299 167 299 167 298 168C295.835 168.099 293.667 168.13 291.5 168.125C290.314 168.128 289.128 168.13 287.906 168.133C285 168 285 168 284 167C283.901 165.002 283.87 163 283.875 161C283.872 159.907 283.87 158.814 283.867 157.688C284.052 153.946 284.136 154.039 287.906 153.867ZM288 158C288 159.98 288 161.96 288 164C289.98 164 291.96 164 294 164C294 162.02 294 160.04 294 158C292.02 158 290.04 158 288 158Z" fill="#212121"/>
<path d="M210.906 153.867C212.092 153.87 213.278 153.872 214.5 153.875C215.686 153.872 216.872 153.87 218.094 153.867C221 154 221 154 222 155C222.099 156.998 222.13 159 222.125 161C222.128 162.093 222.13 163.186 222.133 164.312C222 167 222 167 221 168C218.835 168.099 216.667 168.13 214.5 168.125C213.314 168.128 212.128 168.13 210.906 168.133C208 168 208 168 207 167C206.901 165.002 206.87 163 206.875 161C206.872 159.907 206.87 158.814 206.867 157.688C207.052 153.946 207.136 154.039 210.906 153.867ZM212 158C212 159.98 212 161.96 212 164C213.98 164 215.96 164 218 164C218 162.02 218 160.04 218 158C216.02 158 214.04 158 212 158Z" fill="#202020"/>
<path d="M287.906 128.867C289.092 128.87 290.278 128.872 291.5 128.875C292.686 128.872 293.872 128.87 295.094 128.867C298 129 298 129 299 130C299.099 131.998 299.13 134 299.125 136C299.128 137.093 299.13 138.186 299.133 139.312C299 142 299 142 298 143C295.835 143.099 293.667 143.13 291.5 143.125C290.314 143.128 289.128 143.13 287.906 143.133C285 143 285 143 284 142C283.901 140.002 283.87 138 283.875 136C283.872 134.907 283.87 133.814 283.867 132.688C284.052 128.946 284.136 129.039 287.906 128.867ZM288 133C288 134.98 288 136.96 288 139C289.98 139 291.96 139 294 139C294 137.02 294 135.04 294 133C292.02 133 290.04 133 288 133Z" fill="#222222"/>
<path d="M210.906 128.867C212.092 128.87 213.278 128.872 214.5 128.875C215.686 128.872 216.872 128.87 218.094 128.867C221 129 221 129 222 130C222.099 131.998 222.13 134 222.125 136C222.128 137.093 222.13 138.186 222.133 139.312C222 142 222 142 221 143C218.835 143.099 216.667 143.13 214.5 143.125C213.314 143.128 212.128 143.13 210.906 143.133C208 143 208 143 207 142C206.901 140.002 206.87 138 206.875 136C206.872 134.907 206.87 133.814 206.867 132.688C207.052 128.946 207.136 129.039 210.906 128.867ZM212 133C212 134.98 212 136.96 212 139C213.98 139 215.96 139 218 139C218 137.02 218 135.04 218 133C216.02 133 214.04 133 212 133Z" fill="#212121"/>
<path d="M135.207 175.375C135.799 175.581 136.39 175.788 137 176C135.036 180.549 133.145 183.237 129 186C128.34 186 127.68 186 127 186C127 186.66 127 187.32 127 188C125.356 189.689 123.686 191.353 122 193C120.972 194.312 119.959 195.637 119 197C118.34 196.67 117.68 196.34 117 196C117 195.34 117 194.68 117 194C115.017 194.656 115.017 194.656 113 196C112.278 197.644 111.606 199.311 111 201C110.34 201.33 109.68 201.66 109 202C111.584 194.629 125.787 173.775 135.207 175.375Z" fill="#2C2C2C"/>
<path d="M354 317C354.33 317 354.66 317 355 317C355.027 318.375 355.047 319.75 355.062 321.125C355.074 321.891 355.086 322.656 355.098 323.445C355 326 355 326 354 332C344.43 332 334.86 332 325 332C325 331.67 325 331.34 325 331C332.92 330.67 340.84 330.34 349 330C336.13 329.505 336.13 329.505 323 329C323 328.67 323 328.34 323 328C331.91 328 340.82 328 350 328C350 326.35 350 324.7 350 323C350.66 323 351.32 323 352 323C352.144 322.196 352.289 321.391 352.438 320.562C353 318 353 318 354 317Z" fill="#2B2B2B"/>
<path d="M242 111C242.33 111 242.66 111 243 111C243 113.64 243 116.28 243 119C243.66 119 244.32 119 245 119C245.351 119.578 245.701 120.155 246.062 120.75C249.003 124.165 252.869 125.372 257 127C257 127.66 257 128.32 257 129C250.905 129.42 247.871 129.078 243 125C240.294 122.384 240.023 121.264 239.688 117.438C240 114 240 114 242 111Z" fill="#212121"/>
<path d="M118 192C118.33 192.66 118.66 193.32 119 194C118.01 196.279 116.968 198.432 115.812 200.625C115.49 201.253 115.167 201.881 114.834 202.528C114.19 203.78 113.543 205.03 112.893 206.279C111.758 208.466 110.658 210.669 109.562 212.875C109.047 213.906 108.531 214.938 108 216C107.01 215.01 106.02 214.02 105 213C105.399 211.246 105.82 209.497 106.25 207.75C106.482 206.775 106.714 205.801 106.953 204.797C108.136 201.636 109.487 200.208 112 198C112.887 197.113 113.774 196.226 114.688 195.312C115.792 194.208 116.896 193.104 118 192Z" fill="#161616"/>
<path d="M100 343C100.268 343.598 100.536 344.196 100.812 344.812C102.077 347.141 102.814 348.492 105 350C109.367 350.39 111.305 350.463 115 348C114.688 350.375 114.688 350.375 114 353C110.263 355.492 108.427 355.458 104 355C101.062 353.438 101.062 353.438 99 351C98.625 347.312 98.625 347.312 99 344C99.33 343.67 99.66 343.34 100 343Z" fill="#1F1F1F"/>
<path d="M257 102C257 102.33 257 102.66 257 103C255.02 103.33 253.04 103.66 251 104C251 104.99 251 105.98 251 107C250.216 107.371 249.432 107.743 248.625 108.125C245.061 110.671 244.987 112.966 244.262 117.137C244.175 117.752 244.089 118.367 244 119C243.67 119 243.34 119 243 119C242.67 116.69 242.34 114.38 242 112C241.34 113.98 240.68 115.96 240 118C239.67 118 239.34 118 239 118C239.336 111.497 240.317 108.574 245 104C248.644 101.236 252.608 101.854 257 102Z" fill="#3D3D3D"/>
<path d="M106 287C108.145 287.051 108.145 287.051 110.813 287.312C112.122 287.43 112.122 287.43 113.457 287.551C116 288 116 288 120 290C117.03 289.67 114.06 289.34 111 289C111 289.66 111 290.32 111 291C111.99 291.33 112.98 291.66 114 292C112.68 292 111.36 292 110 292C110.33 293.32 110.66 294.64 111 296C110.01 296 109.02 296 108 296C107.67 294.35 107.34 292.7 107 291C106.67 296.61 106.34 302.22 106 308C105.67 308 105.34 308 105 308C104.971 304.688 104.953 301.375 104.938 298.062C104.929 297.117 104.921 296.171 104.912 295.197C104.909 294.298 104.906 293.399 104.903 292.473C104.897 291.64 104.892 290.807 104.887 289.949C105 288 105 288 106 287Z" fill="#3D3D3D"/>
<path d="M251 108C252.32 108 253.64 108 255 108C255 109.65 255 111.3 255 113C256.32 113.33 257.64 113.66 259 114C258.67 115.32 258.34 116.64 258 118C256 118.043 254 118.041 252 118C251 117 251 117 250.902 114.934C250.914 114.11 250.926 113.286 250.938 112.438C250.947 111.611 250.956 110.785 250.965 109.934C250.976 109.296 250.988 108.657 251 108Z" fill="#2E2E2E"/>
<path d="M105 369C104.01 369.495 104.01 369.495 103 370C102.67 370.99 102.34 371.98 102 373C100.793 373.464 100.793 373.464 99.5625 373.937C96.8584 374.766 96.8584 374.766 95.6875 377.125C95.4606 377.744 95.2338 378.362 95 379C94.67 378.34 94.34 377.68 94 377C93.34 377 92.68 377 92 377C94.2463 371.282 98.9349 367.18 105 369Z" fill="#313131"/>
<path d="M384 292C383.01 292.495 383.01 292.495 382 293C386.95 293.33 391.9 293.66 397 294C397 294.33 397 294.66 397 295C395.998 295.061 394.997 295.121 393.965 295.184C392.622 295.268 391.28 295.353 389.938 295.437C387.971 295.559 387.971 295.559 385.965 295.684C382.263 295.979 378.666 296.433 375 297C375.812 294.562 375.812 294.562 377 292C380.133 290.955 380.99 291.066 384 292Z" fill="#393939"/>
<path d="M106 289C108 291 108 291 108.125 293.625C108.084 294.409 108.043 295.193 108 296C108.99 296 109.98 296 111 296C111 296.66 111 297.32 111 298C110.01 298.495 110.01 298.495 109 299C108.61 300.865 108.61 300.865 108.5 303C108.344 305.188 108.344 305.188 108 307C107.34 307.33 106.68 307.66 106 308C106 301.73 106 295.46 106 289Z" fill="#050505"/>
<path d="M107 204C108.208 207.623 107.543 208.641 106 212C106.33 212 106.66 212 107 212C107.25 219.625 107.25 219.625 105 223C105 220.69 105 218.38 105 216C104.01 217.98 103.02 219.96 102 222C100.338 217.945 101.791 215.221 103.375 211.312C103.836 210.154 104.298 208.995 104.773 207.801C106 205 106 205 107 204Z" fill="#3A3A3A"/>
<path d="M103 337C103.99 337.33 104.98 337.66 106 338C104.68 340.97 103.36 343.94 102 347C101.34 346.01 100.68 345.02 100 344C99.67 345.65 99.34 347.3 99 349C98.67 349 98.34 349 98 349C97.6875 345.812 97.6875 345.812 98 342C100.5 339.062 100.5 339.062 103 337Z" fill="#383838"/>
<path d="M117 292C117 292.66 117 293.32 117 294C116.01 294.495 116.01 294.495 115 295C115.99 295.66 116.98 296.32 118 297C115.36 297.66 112.72 298.32 110 299C110 301.97 110 304.94 110 308C109.67 308 109.34 308 109 308C109 304.7 109 301.4 109 298C109.66 298 110.32 298 111 298C111 296.68 111 295.36 111 294C114.75 292 114.75 292 117 292Z" fill="#4A4A4A"/>
<path d="M386.262 290.707C387.062 290.742 387.863 290.777 388.688 290.812C389.9 290.853 389.9 290.853 391.137 290.895C391.752 290.929 392.366 290.964 393 291C393 291.99 393 292.98 393 294C389.04 294 385.08 294 381 294C384 291 384 291 386.262 290.707Z" fill="#050505"/>
<path d="M366 298C366.66 298.33 367.32 298.66 368 299C364.37 302.63 360.74 306.26 357 310C357 306.261 357.92 305.591 360.375 302.875C361.001 302.171 361.628 301.467 362.273 300.742C364 299 364 299 366 298Z" fill="#424242"/>
<path d="M109 206C110.274 208.547 109.802 209.428 109.062 212.125C108.868 212.849 108.673 213.574 108.473 214.32C108.317 214.875 108.161 215.429 108 216C106.438 214.812 106.438 214.812 105 213C105.125 210.438 105.125 210.438 106 208C106.99 207.34 107.98 206.68 109 206Z" fill="#0C0C0C"/>
<path d="M105 215C106.108 218.325 105.845 220.622 105 224C104.01 223.34 103.02 222.68 102 222C102.75 217.25 102.75 217.25 105 215Z" fill="#050505"/>
<path d="M121 185C121.99 185.33 122.98 185.66 124 186C122.35 187.32 120.7 188.64 119 190C119.875 186.125 119.875 186.125 121 185Z" fill="#191919"/>
</svg>
