<svg width="500" height="500" viewBox="0 0 500 500" fill="none" xmlns="http://www.w3.org/2000/svg">
<path d="M90 67C95.6513 66.7833 100.277 67.3627 105.664 69.1602C106.37 69.3855 107.076 69.6108 107.804 69.8429C110.081 70.572 112.353 71.3171 114.625 72.0625C116.204 72.571 117.783 73.0783 119.363 73.5845C123.223 74.8237 127.079 76.0746 130.934 77.3291C135.658 78.8631 140.392 80.3684 145.125 81.875C145.989 82.1514 146.853 82.4279 147.743 82.7127C153.81 84.6468 159.907 86.46 166.024 88.228C170.554 89.5468 175.03 90.9864 179.5 92.5C185.336 94.4739 191.199 96.2705 197.113 97.9888C207.105 100.894 217.055 103.938 227 107C228.531 107.469 228.531 107.469 230.093 107.948C233.106 108.875 236.116 109.811 239.125 110.75C240.043 111.032 240.961 111.313 241.907 111.603C243.194 112.008 243.194 112.008 244.508 112.422C245.631 112.771 245.631 112.771 246.778 113.128C249.52 114.204 251.646 115.198 254 117C254.601 119.79 254.601 119.79 254.568 123.216C254.567 124.497 254.567 125.778 254.566 127.098C254.541 128.496 254.515 129.895 254.488 131.293C254.479 132.724 254.472 134.154 254.467 135.585C254.448 139.348 254.399 143.111 254.343 146.874C254.292 150.715 254.269 154.556 254.244 158.396C254.191 165.931 254.105 173.466 254 181C254.669 180.729 255.339 180.458 256.028 180.179C256.915 179.821 257.802 179.464 258.717 179.095C259.592 178.742 260.468 178.388 261.37 178.024C265.215 176.527 269.121 175.278 273.062 174.063C273.884 173.806 274.706 173.549 275.552 173.285C281.403 171.467 287.277 169.738 293.162 168.035C300.749 165.819 308.259 163.368 315.78 160.942C322.317 158.839 328.87 156.832 335.469 154.934C341.853 153.08 348.174 151.041 354.5 149C362.898 146.293 371.307 143.672 379.785 141.23C382.971 140.31 386.141 139.345 389.309 138.363C390.213 138.085 391.118 137.807 392.05 137.52C393.807 136.978 395.562 136.431 397.316 135.878C405.21 133.458 405.21 133.458 409 134C411.621 136.621 411.24 138.474 411.258 142.042C411.252 142.897 411.247 143.751 411.241 144.631C411.243 145.987 411.243 145.987 411.246 147.37C411.249 150.418 411.238 153.466 411.227 156.514C411.227 158.692 411.227 160.869 411.228 163.047C411.229 168.974 411.217 174.902 411.203 180.829C411.19 187.018 411.189 193.206 411.187 199.395C411.181 210.454 411.166 221.513 411.147 232.572C411.124 246.586 411.111 260.6 411.101 274.614C411.08 302.076 411.045 329.538 411 357C412.671 356.969 412.671 356.969 414.375 356.938C418 357 418 357 420 358C420 374.17 420 390.34 420 407C307.8 407 195.6 407 80 407C80 390.83 80 374.66 80 358C82.9566 356.522 85.7423 356.94 89 357C88.9996 356.391 88.9992 355.783 88.9988 355.156C88.9765 319.115 88.9593 283.074 88.9489 247.034C88.9477 242.71 88.9464 238.387 88.9451 234.063C88.9448 233.202 88.9445 232.341 88.9443 231.455C88.9399 217.501 88.932 203.548 88.9228 189.594C88.9135 175.286 88.9079 160.978 88.9059 146.67C88.9045 137.835 88.9002 128.999 88.8921 120.164C88.8868 114.113 88.8852 108.062 88.8865 102.01C88.8871 98.5143 88.8861 95.0184 88.8808 91.5225C88.8759 87.7397 88.877 83.9569 88.8797 80.1741C88.8768 79.0594 88.8739 77.9446 88.8709 76.796C88.8729 75.7888 88.8749 74.7816 88.877 73.7439C88.8766 72.8698 88.8762 71.9957 88.8758 71.0951C89 69 89 69 90 67ZM97 75C97 168.06 97 261.12 97 357C146.17 357 195.34 357 246 357C246 278.79 246 200.58 246 120C240.39 118.35 234.78 116.7 229 115C221.5 112.5 221.5 112.5 217.781 111.242C213.172 109.728 208.53 108.36 203.872 107.007C180.266 100.144 156.68 93.0094 133.398 85.1133C128.007 83.347 122.559 81.7799 117.109 80.2031C112.226 78.7862 107.382 77.2502 102.539 75.6992C99.9569 74.8673 99.9569 74.8673 97 75ZM392.527 144.258C391.651 144.546 390.775 144.835 389.872 145.133C388.904 145.46 387.935 145.788 386.938 146.125C384.703 146.86 382.467 147.593 380.23 148.324C379.299 148.63 379.299 148.63 378.348 148.942C368.849 152.047 359.295 154.977 349.75 157.938C347.775 158.551 345.8 159.164 343.826 159.778C335.36 162.408 326.893 165.034 318.426 167.656C315.971 168.417 313.517 169.177 311.062 169.938C309.919 170.292 308.776 170.646 307.598 171.011C299.576 173.499 291.573 176.043 283.575 178.608C277.2 180.643 270.798 182.571 264.362 184.403C260.787 185.43 257.471 186.611 254 188C254 243.77 254 299.54 254 357C267.86 357 281.72 357 296 357C296 328.29 296 299.58 296 270C306.374 269.979 316.749 269.959 327.438 269.938C330.717 269.928 333.997 269.919 337.377 269.91C339.958 269.907 342.54 269.904 345.121 269.902C345.796 269.9 346.471 269.897 347.167 269.894C349.145 269.887 351.124 269.887 353.103 269.886C354.22 269.884 355.337 269.882 356.488 269.88C359 270 359 270 360 271C360.125 273.677 360.186 276.33 360.205 279.008C360.215 279.847 360.225 280.686 360.235 281.55C360.267 284.337 360.292 287.124 360.316 289.91C360.337 291.837 360.358 293.764 360.379 295.69C360.435 300.772 360.484 305.853 360.532 310.935C360.591 317.027 360.657 323.118 360.723 329.209C360.821 338.473 360.909 347.736 361 357C374.86 357 388.72 357 403 357C403 286.38 403 215.76 403 143C397.468 142.968 397.468 142.968 392.527 144.258ZM303 277C303 303.4 303 329.8 303 357C319.83 357 336.66 357 354 357C354 330.6 354 304.2 354 277C337.17 277 320.34 277 303 277ZM87 365C87 376.55 87 388.1 87 400C194.58 400 302.16 400 413 400C413 388.45 413 376.9 413 365C305.42 365 197.84 365 87 365Z" fill="black"/>
<path d="M213.25 141C219.046 144.195 222.906 148.72 225 155C225.226 159.149 225.228 163.297 225.24 167.452C225.25 169.493 225.281 171.533 225.312 173.574C225.32 175.502 225.32 175.502 225.328 177.469C225.337 178.649 225.347 179.829 225.356 181.045C225 184 225 184 223.995 185.886C220.757 187.695 217.365 187.406 213.754 187.363C212.946 187.364 212.139 187.364 211.307 187.365C209.6 187.363 207.892 187.353 206.185 187.336C203.576 187.313 200.967 187.316 198.357 187.322C196.698 187.317 195.038 187.31 193.379 187.301C192.599 187.302 191.82 187.303 191.017 187.304C187.209 187.254 184.229 187.146 181 185C180.875 181.053 180.785 177.107 180.725 173.159C180.688 171.168 180.625 169.178 180.56 167.188C180.457 159.012 181.115 152.743 186 146C188.351 143.746 188.351 143.746 190.625 142.438C191.758 141.755 191.758 141.755 192.914 141.059C199.558 137.687 206.534 137.972 213.25 141ZM191 151C187.94 157.174 187.609 163.297 187.812 170.063C187.874 173.012 187.936 175.961 188 179C197.9 179 207.8 179 218 179C218.062 175.679 218.124 172.359 218.187 168.938C218.215 167.905 218.242 166.872 218.27 165.808C218.328 159.337 217.798 154.378 213.527 149.223C209.274 146.119 205.703 145.215 200.433 145.527C196.307 146.329 193.773 147.872 191 151Z" fill="black"/>
<path d="M152.73 142.297C157.131 145.599 159.578 150.157 162 155C162.234 159.283 162.228 163.57 162.24 167.858C162.25 169.992 162.281 172.124 162.312 174.258C162.319 175.609 162.324 176.961 162.328 178.312C162.337 179.546 162.347 180.78 162.356 182.051C162.239 183.024 162.121 183.997 162 185C158.191 187.539 155.129 187.271 150.719 187.23C149.909 187.23 149.099 187.229 148.264 187.229C146.553 187.226 144.842 187.218 143.13 187.206C140.51 187.187 137.89 187.185 135.269 187.185C133.607 187.181 131.944 187.175 130.281 187.168C129.497 187.167 128.712 187.166 127.904 187.165C124.68 187.136 122.08 187.027 119 186C116.754 181.508 117.68 175.431 117.625 170.5C117.588 169.257 117.55 168.015 117.512 166.734C117.436 158.777 118.258 152.57 123 146C125.19 143.939 127.351 142.414 130 141C131.145 140.35 131.145 140.35 132.312 139.687C139.744 137.786 146.006 138.612 152.73 142.297ZM127.125 151.937C125.067 155.711 124.875 159.63 124.902 163.863C124.905 164.663 124.907 165.462 124.91 166.286C124.919 167.285 124.928 168.284 124.937 169.312C124.958 172.509 124.979 175.706 125 179C134.9 179 144.8 179 155 179C155.103 175.349 155.206 171.699 155.312 167.937C155.358 166.8 155.403 165.663 155.45 164.492C155.544 157.593 154.677 154.13 150 149C146.329 145.839 142.978 145.48 138.281 145.644C133.674 146.362 130.367 148.587 127.125 151.937Z" fill="black"/>
<path d="M307.926 206.668C313.344 210.148 316.459 215.186 319 221C319.388 224.311 319.388 224.311 319.398 227.859C319.404 229.779 319.404 229.779 319.41 231.738C319.404 232.396 319.397 233.055 319.391 233.733C319.375 235.759 319.391 237.783 319.41 239.809C319.406 241.083 319.402 242.358 319.398 243.672C319.395 244.838 319.392 246.004 319.388 247.206C319.26 248.128 319.132 249.05 319 250C315.148 252.568 311.965 252.288 307.5 252.266C306.668 252.267 305.836 252.269 304.978 252.271C303.22 252.273 301.461 252.269 299.703 252.261C297.01 252.25 294.318 252.261 291.625 252.273C289.917 252.272 288.208 252.269 286.5 252.266C285.694 252.27 284.887 252.274 284.057 252.278C280.185 252.245 278.295 252.197 275 250C274.387 245.861 274.485 241.707 274.499 237.526C274.5 235.468 274.459 233.415 274.414 231.357C274.399 223.476 274.838 217.235 280 211C288.326 203.476 297.717 201.626 307.926 206.668ZM285 216C281.433 222.011 281.638 227.58 281.812 234.437C281.826 235.455 281.839 236.473 281.853 237.521C281.889 240.015 281.938 242.507 282 245C286.112 245.025 290.223 245.043 294.335 245.055C295.735 245.06 297.135 245.067 298.534 245.075C300.542 245.087 302.55 245.093 304.558 245.098C305.768 245.103 306.978 245.108 308.224 245.113C310.908 245.318 310.908 245.318 312 244C312.252 240.967 312.185 237.918 312.187 234.875C312.206 233.61 312.206 233.61 312.224 232.32C312.238 226.496 311.951 221.068 308.73 216.004C303.919 211.51 299.513 211.353 293.086 211.398C289.265 212.143 287.684 213.187 285 216Z" fill="black"/>
<path d="M214.219 206.805C219.086 210.07 223.063 214.427 225 220C225.488 224.421 225.535 228.796 225.467 233.236C225.437 235.325 225.446 237.412 225.459 239.502C225.411 247.083 225.411 247.083 225 250C221.148 252.568 217.965 252.288 213.5 252.266C212.668 252.267 211.836 252.269 210.979 252.271C209.22 252.273 207.462 252.269 205.703 252.261C203.01 252.25 200.318 252.261 197.625 252.273C195.917 252.272 194.208 252.269 192.5 252.266C191.694 252.27 190.888 252.274 190.057 252.278C186.185 252.245 184.295 252.197 181 250C180.389 246.003 180.485 241.993 180.499 237.953C180.5 235.969 180.458 233.985 180.414 232.002C180.394 222.251 182.276 216.629 188.313 209.125C196.09 202.976 205.531 201.875 214.219 206.805ZM191.305 216.004C187.532 221.776 187.716 228.249 187.813 234.875C187.813 235.741 187.814 236.607 187.815 237.5C187.483 241.574 187.483 241.574 189 245C191.146 245.088 193.294 245.107 195.442 245.098C196.747 245.094 198.052 245.091 199.397 245.088C200.785 245.079 202.174 245.071 203.563 245.062C204.955 245.057 206.348 245.053 207.74 245.049C211.16 245.037 214.58 245.02 218 245C218.088 241.479 218.141 237.959 218.188 234.437C218.213 233.447 218.238 232.456 218.264 231.435C218.323 225.473 217.926 221.239 215 216C211.325 212.325 208.096 211.658 203.063 211.375C197.936 211.56 195.064 212.553 191.305 216.004Z" fill="black"/>
<path d="M213.82 271.598C219.235 275.081 222.974 279.923 225 286C225.362 290.217 225.329 294.426 225.316 298.658C225.312 300.692 225.336 302.725 225.361 304.76C225.362 306.039 225.363 307.319 225.363 308.637C225.366 309.809 225.369 310.982 225.372 312.19C225.249 313.118 225.126 314.045 225 315C221.143 317.571 217.969 317.27 213.5 317.231C212.668 317.23 211.836 317.23 210.978 317.229C209.22 317.226 207.461 317.218 205.703 317.206C203.01 317.188 200.318 317.185 197.625 317.186C195.917 317.181 194.208 317.175 192.5 317.168C191.694 317.167 190.887 317.166 190.057 317.165C186.786 317.137 184.124 317.042 181 316C180.875 311.893 180.785 307.786 180.725 303.677C180.7 302.283 180.666 300.89 180.623 299.496C180.335 290.064 180.79 282.684 187.408 275.464C195.351 268.214 204.398 267.017 213.82 271.598ZM191.305 281.004C187.532 286.776 187.716 293.249 187.812 299.875C187.813 300.741 187.814 301.608 187.814 302.5C187.483 306.574 187.483 306.574 189 310C191.145 310.088 193.294 310.107 195.441 310.098C196.746 310.095 198.052 310.091 199.396 310.088C200.785 310.08 202.174 310.071 203.562 310.063C204.955 310.058 206.348 310.053 207.74 310.049C211.16 310.037 214.58 310.021 218 310C218.058 306.625 218.094 303.25 218.125 299.875C218.142 298.924 218.158 297.972 218.176 296.992C218.222 290.374 218.08 285.34 213.5 280.188C209.174 276.402 205.683 276.54 200.059 276.594C196.126 277.116 194.176 278.369 191.305 281.004Z" fill="black"/>
<path d="M151.219 206.805C156.073 210.062 160.12 214.415 162 220C162.492 225.321 162.377 230.605 162.25 235.938C162.23 237.399 162.212 238.861 162.195 240.322C162.151 243.882 162.083 247.441 162 251C158.156 252.281 154.507 252.182 150.5 252.203C149.252 252.212 149.252 252.212 147.978 252.22C146.22 252.23 144.462 252.236 142.703 252.24C140.01 252.25 137.318 252.281 134.625 252.313C132.917 252.319 131.208 252.324 129.5 252.328C128.29 252.347 128.29 252.347 127.057 252.366C121.435 252.343 121.435 252.343 119.289 250.652C116.237 246.742 117.536 240.045 117.562 235.313C117.542 234.058 117.522 232.803 117.502 231.51C117.507 222.436 118.698 216.646 124.75 209.688C132.217 202.819 142.484 201.848 151.219 206.805ZM128 216C125.146 220.281 124.871 224.022 124.902 229.082C124.905 229.922 124.907 230.763 124.91 231.628C124.919 232.679 124.928 233.73 124.937 234.813C124.958 238.174 124.979 241.536 125 245C134.9 245 144.8 245 155 245C155.103 241.184 155.206 237.369 155.312 233.438C155.358 232.248 155.403 231.059 155.45 229.834C155.542 222.826 154.839 219.165 150 214C143.409 209.606 133.705 210.603 128 216Z" fill="black"/>
<path d="M370.855 206.606C376.154 210.051 380.051 214.567 381.64 220.759C382.462 225.882 382.327 231.075 382.312 236.25C382.328 237.433 382.345 238.617 382.361 239.836C382.362 240.968 382.362 242.1 382.363 243.266C382.366 244.295 382.369 245.324 382.372 246.384C381.936 249.447 381.376 250.115 379 252C376.093 252.274 373.404 252.373 370.5 252.328C369.668 252.326 368.836 252.324 367.978 252.323C366.22 252.316 364.461 252.302 362.703 252.281C360.01 252.25 357.318 252.24 354.625 252.234C352.917 252.225 351.208 252.215 349.5 252.203C348.694 252.199 347.887 252.195 347.056 252.19C343.79 252.149 341.119 252.04 338 251C337.875 246.75 337.785 242.501 337.725 238.25C337.7 236.808 337.666 235.366 337.623 233.924C337.372 225.42 337.212 217.87 343 211C351.265 203.546 360.698 201.572 370.855 206.606ZM348 216C344.035 221.522 344.657 227.369 344.812 233.875C344.874 237.546 344.936 241.218 345 245C354.9 245 364.8 245 375 245C375.062 239.988 375.062 239.988 375.125 234.875C375.143 233.833 375.161 232.792 375.18 231.718C375.219 225.191 375.01 220.261 370.5 215.188C366.743 211.9 364.632 211.794 359.687 211.688C357.992 211.632 357.992 211.632 356.262 211.574C352.254 212.097 350.788 213.106 348 216Z" fill="black"/>
<path d="M150.82 271.598C156.222 275.073 160.002 279.924 162 286C162.227 289.322 162.227 289.322 162.195 293.051C162.192 293.71 162.19 294.368 162.187 295.047C162.176 297.136 162.151 299.224 162.125 301.313C162.115 302.735 162.106 304.158 162.098 305.58C162.076 309.054 162.041 312.527 162 316C158.156 317.281 154.507 317.182 150.5 317.203C149.252 317.212 149.252 317.212 147.979 317.22C146.22 317.23 144.462 317.236 142.703 317.24C140.01 317.25 137.318 317.281 134.625 317.313C132.917 317.319 131.208 317.324 129.5 317.328C128.291 317.347 128.291 317.347 127.057 317.366C121.434 317.343 121.434 317.343 119.288 315.647C117.356 313.176 117.611 311.146 117.602 308.047C117.598 306.87 117.594 305.693 117.59 304.481C117.601 303.249 117.613 302.018 117.625 300.75C117.613 299.534 117.602 298.319 117.59 297.066C117.62 287.81 118.856 281.553 125.203 274.578C132.891 267.826 141.868 267.246 150.82 271.598ZM128.305 281.102C124.318 286.903 124.757 293.135 124.875 299.875C124.916 303.216 124.957 306.558 125 310C134.9 310 144.8 310 155 310C155.083 306.349 155.165 302.699 155.25 298.938C155.305 297.232 155.305 297.232 155.36 295.492C155.43 289.091 154.987 285.106 151 280C146.537 276.437 142.494 276.376 136.953 276.52C133.11 277.145 131.099 278.474 128.305 281.102Z" fill="black"/>
</svg>
