<svg width="500" height="500" viewBox="0 0 500 500" fill="none" xmlns="http://www.w3.org/2000/svg">
<path d="M253 101C255.762 102.963 258.002 105.345 260.313 107.812C260.976 108.499 261.639 109.187 262.322 109.894C267.534 115.355 272.35 121.056 277 127C277.903 128.093 278.81 129.184 279.719 130.273C304.903 160.659 329.457 199.962 327 241C324.712 259.42 315.698 278.145 301 290C281.8 303.821 261.427 310.576 237.636 307.716C216.014 304.19 198.52 291.894 185.293 274.793C174.217 259.231 171.227 240.266 173.75 221.625C179.709 187.657 197.872 158.618 219 132C219.727 131.078 220.454 130.157 221.203 129.207C226.722 122.328 232.605 115.834 238.662 109.43C239.832 108.18 240.973 106.902 242.109 105.621C242.692 104.983 243.275 104.345 243.875 103.687C244.347 103.155 244.819 102.623 245.305 102.074C248.126 100.286 249.719 100.403 253 101ZM246.176 113.363C241.654 118.094 237.433 122.994 233.34 128.101C231.008 130.99 228.602 133.805 226.188 136.625C207.243 159.365 186.654 189.906 183 220C182.892 220.825 182.784 221.65 182.672 222.5C180.445 241.721 183.966 259.105 196 274.57C207.31 287.779 222.635 296.766 240 299C260.405 300.523 278.629 296.375 294.938 283.687C308.701 271.619 316.705 257.255 318 239C319.418 216.914 311.445 196.04 301 177C300.078 175.267 300.078 175.267 299.137 173.5C289.386 155.735 276.774 139.162 263.074 124.258C260.464 121.417 257.937 118.509 255.41 115.594C254.316 114.357 253.168 113.168 252 112C248.155 111.601 248.155 111.601 246.176 113.363Z" fill="black"/>
<path d="M113.434 325.938C117.841 328.2 121.307 331.084 124.938 334.438C133.335 342.188 140.313 346.395 152 346C160.603 345.336 165.525 341.056 171.816 335.523C180.952 327.562 189.502 322.59 202 323C214.734 324.698 222.722 331.553 232.105 339.73C239.032 345.162 245.739 346.47 254.395 345.82C262.595 344.413 268.489 339.468 274.438 333.938C281.797 327.244 290.66 323.085 300.691 322.969C314.769 323.752 325.212 332.143 335.148 341.555C340.83 345.989 348.444 346.334 355.398 345.824C363.866 344.353 369.794 339.201 375.875 333.438C382.608 327.247 389.914 323.785 399.027 322.848C401.398 323.031 402.954 323.824 405 325C405 326.98 405 328.96 405 331C401.91 332.757 399.324 333.324 395.812 333.75C387.376 335.216 382.214 339.809 376.125 345.562C368.729 352.405 359.623 356.511 349.418 356.262C335.627 354.769 326.992 347.281 317 338.5C310.164 332.804 302.387 333.359 293.918 333.822C286.016 334.554 281.193 340.423 275.656 345.594C268.147 352.396 258.613 356.856 248.223 356.344C238.466 354.835 231.311 351.502 224 345C222.091 343.387 220.174 341.783 218.25 340.188C217.368 339.439 216.487 338.69 215.578 337.918C208.385 332.567 199.588 333.204 191 334C184.183 335.489 179.596 340.98 174.656 345.594C167.33 352.23 158.924 355.911 148.938 356.375C137.154 355.253 127.793 350.168 119.688 341.668C113.886 335.934 107.647 334.152 99.7578 332.578C97 332 97 332 95 331C95 329.02 95 327.04 95 325C100.654 321.441 107.547 323.67 113.434 325.938Z" fill="black"/>
<path d="M100.5 370.688C113.122 371.12 121.747 377.987 130.688 386.313C137.522 392.448 143.603 393.667 152.762 393.402C161.606 392.304 167.209 387.133 173.488 381.219C182.206 373.518 191.093 370.475 202.652 370.688C211.552 371.518 218.309 375.318 225 381C234.479 389.035 240.676 393.751 253.508 393.399C262.954 392.321 268.53 386.777 275.191 380.445C283.874 372.886 292.31 370.599 303.586 370.727C313.163 371.494 319.903 375.869 327 382C328.889 383.612 330.785 385.216 332.688 386.813C333.558 387.562 334.428 388.31 335.324 389.082C341.919 393.809 349.176 393.743 357 393C363.15 391.434 367.444 388.047 372.035 383.801C379.956 376.542 388.256 371.146 399.188 370.813C403 371 403 371 405 373C405.312 375.5 405.312 375.5 405 378C401.609 380.261 399.685 380.359 395.688 380.875C387.597 382.487 383.192 386.529 377.277 392.039C369.308 399.451 362.021 402.197 351.375 402.313C350.51 402.342 349.645 402.371 348.754 402.4C340.45 402.481 333.877 399.968 327.438 394.688C326.695 394.088 325.952 393.489 325.188 392.871C323.054 391.046 320.999 389.155 318.938 387.25C312.185 381.359 306.18 380.667 297.344 380.602C289.635 381.52 284.804 384.577 279.25 389.813C268.389 399.41 259.398 403.348 244.785 402.57C233.932 401.555 227.101 395.583 219.477 388.277C212.338 381.713 205.696 380.657 196.242 380.805C187.336 381.341 183.174 385.436 176.812 391.488C172.894 394.987 168.68 397.636 164 400C163.279 400.373 162.559 400.745 161.816 401.129C153.687 403.643 141.347 403.745 133.562 400.188C128.933 397.331 124.766 393.646 120.727 390.011C115.083 384.955 109.687 381.823 102.125 380.313C96.0801 379.08 96.0801 379.08 95 378C94.8125 375.563 94.8125 375.563 95 373C97 371 97 371 100.5 370.688Z" fill="black"/>
<path d="M405 278C405.312 280.5 405.312 280.5 405 283C402.53 285.47 401.286 285.41 397.875 285.875C388.02 287.59 382.984 291.78 375.742 298.59C367.099 306.187 358.118 308.491 346.762 308.313C338.594 307.634 330.724 303.978 325 298C324.16 296 324.16 296 324 294C324.99 292.515 324.99 292.515 326 291C329.056 290.515 330.599 290.779 333.316 292.277C334.058 292.825 334.799 293.373 335.562 293.938C342.503 299.025 349.574 298.625 358 298C365.32 296.43 369.944 291.49 375.23 286.477C382.629 279.861 395.396 271.597 405 278Z" fill="black"/>
<path d="M105 276C113.039 278.028 118.792 281.637 125 287C126.889 288.612 128.785 290.216 130.688 291.813C131.558 292.562 132.428 293.31 133.324 294.082C140.205 299.014 147.858 298.605 156 298C160.205 297.104 163.325 295.549 166.688 292.813C169.381 290.701 170.664 290.619 174 291C174.99 293.475 174.99 293.475 176 296C169.887 302.686 162.722 307.448 153.52 308.336C139.418 308.485 131.295 304.88 120.949 295.633C114.697 290.052 109.229 286.417 100.75 285.5C97 285 97 285 95 283C94.6875 280.5 94.6875 280.5 95 278C98.5728 275.618 100.882 275.409 105 276Z" fill="black"/>
<path d="M218.562 198.062C221 199 221 199 222.32 200.762C223 203 223 203 221.988 205.297C221.435 206.106 220.882 206.916 220.312 207.75C214.131 217.333 212.166 226.656 213 238C213.758 241.476 214.632 244.873 215.637 248.285C216 251 216 251 214.738 252.867C213 254 213 254 210.5 254.062C208 253 208 253 206.312 250.437C201.346 237.431 201.715 224.914 207 212C213.671 197.943 213.671 197.943 218.562 198.062Z" fill="black"/>
</svg>
