<svg width="500" height="500" viewBox="0 0 500 500" fill="none" xmlns="http://www.w3.org/2000/svg">
<path d="M185.883 187.746C187.726 187.738 187.726 187.738 189.605 187.729C190.969 187.733 192.332 187.737 193.695 187.741C195.129 187.739 196.563 187.735 197.997 187.731C201.894 187.722 205.79 187.725 209.687 187.731C213.762 187.736 217.836 187.732 221.911 187.729C228.754 187.725 235.597 187.73 242.439 187.739C250.355 187.75 258.271 187.747 266.186 187.736C272.978 187.727 279.769 187.725 286.561 187.731C290.619 187.734 294.678 187.734 298.736 187.727C302.551 187.722 306.366 187.726 310.181 187.737C311.583 187.74 312.984 187.739 314.386 187.735C316.296 187.729 318.206 187.737 320.117 187.746C321.187 187.747 322.257 187.748 323.359 187.748C326 188 326 188 329 190C329.865 192.554 330.55 194.994 331.164 197.609C331.357 198.39 331.55 199.171 331.749 199.976C332.386 202.565 333.006 205.157 333.625 207.75C334.069 209.573 334.515 211.396 334.961 213.218C336.325 218.808 337.666 224.403 339 230C339.197 230.825 339.394 231.649 339.596 232.499C341.247 239.422 342.891 246.346 344.512 253.276C346.622 262.283 348.801 271.271 351.043 280.246C351.56 282.325 352.077 284.405 352.594 286.484C353.354 289.538 354.116 292.591 354.89 295.642C355.604 298.46 356.307 301.28 357.008 304.102C357.225 304.945 357.442 305.788 357.666 306.656C357.858 307.436 358.049 308.215 358.247 309.018C358.417 309.694 358.588 310.37 358.763 311.066C359.045 313.37 358.846 314.838 358 317C354.185 319.544 351.115 319.281 346.694 319.261C345.836 319.265 344.979 319.268 344.096 319.272C341.212 319.283 338.329 319.279 335.446 319.275C333.383 319.279 331.32 319.284 329.257 319.29C323.645 319.304 318.034 319.304 312.422 319.302C307.743 319.301 303.063 319.305 298.383 319.31C287.346 319.321 276.309 319.322 265.272 319.316C253.874 319.31 242.476 319.322 231.079 319.343C221.303 319.361 211.527 319.367 201.751 319.364C195.908 319.362 190.065 319.365 184.222 319.378C178.729 319.391 173.235 319.389 167.742 319.376C165.723 319.374 163.704 319.376 161.685 319.385C158.934 319.395 156.184 319.387 153.433 319.374C152.63 319.382 151.826 319.389 150.999 319.397C146.734 319.355 144.08 319.088 141 316C142.407 308.119 144.457 300.496 146.688 292.813C147.001 291.715 147.315 290.617 147.639 289.486C149.501 283.019 151.432 276.576 153.408 270.143C158.079 254.926 162.386 239.614 166.674 224.286C167.638 220.842 168.606 217.4 169.574 213.957C169.86 212.932 170.145 211.907 170.439 210.85C171.897 205.671 173.416 200.512 175.027 195.378C175.332 194.395 175.638 193.412 175.952 192.4C178.029 187.643 181.221 187.749 185.883 187.746ZM183 196C176.076 218.058 176.076 218.058 169.613 240.254C169.078 242.155 168.542 244.056 168.006 245.957C167.105 249.158 166.209 252.361 165.312 255.563C163.874 260.69 162.431 265.816 160.988 270.941C160.647 272.158 160.305 273.375 159.954 274.628C157.659 282.772 155.276 290.885 152.71 298.949C151.544 302.707 150.577 306.048 151 310C152.734 311.735 154.973 311.122 157.285 311.129C158.049 311.126 158.812 311.123 159.599 311.12C160.404 311.121 161.21 311.122 162.039 311.123C164.759 311.125 167.478 311.119 170.198 311.114C172.139 311.113 174.08 311.113 176.021 311.114C181.308 311.114 186.594 311.108 191.881 311.101C197.4 311.095 202.919 311.095 208.437 311.093C218.896 311.09 229.354 311.082 239.812 311.072C251.715 311.061 263.619 311.055 275.522 311.05C300.014 311.04 324.507 311.022 349 311C349.861 307.869 349.995 305.969 349.218 302.797C349.019 301.966 348.821 301.134 348.616 300.277C348.389 299.372 348.163 298.467 347.93 297.535C347.697 296.574 347.464 295.613 347.225 294.623C346.45 291.434 345.663 288.248 344.875 285.063C344.333 282.842 343.791 280.621 343.25 278.399C342.106 273.706 340.956 269.013 339.801 264.322C337.981 256.931 336.178 249.536 334.375 242.141C332.128 232.932 329.879 223.724 327.617 214.52C327.381 213.555 327.145 212.59 326.902 211.597C325.521 203.234 325.521 203.234 322 196C320.203 195.904 318.402 195.878 316.603 195.88C315.432 195.878 314.261 195.877 313.054 195.876C311.11 195.881 311.11 195.881 309.127 195.887C307.757 195.887 306.388 195.887 305.018 195.886C301.289 195.886 297.56 195.892 293.83 195.899C289.937 195.905 286.044 195.906 282.151 195.907C274.774 195.91 267.397 195.918 260.02 195.928C251.623 195.939 243.227 195.945 234.83 195.95C217.554 195.96 200.277 195.978 183 196Z" fill="black"/>
<path d="M72.8362 117.874C74.1125 117.872 75.3888 117.869 76.7038 117.866C78.1386 117.869 79.5735 117.871 81.0083 117.873C82.5181 117.872 84.028 117.87 85.5378 117.868C89.7066 117.864 93.8754 117.866 98.0442 117.869C102.532 117.872 107.02 117.868 111.508 117.865C120.309 117.861 129.109 117.862 137.909 117.865C145.057 117.867 152.206 117.867 159.355 117.866C160.878 117.866 160.878 117.866 162.431 117.866C164.494 117.866 166.556 117.865 168.618 117.865C187.981 117.862 207.344 117.865 226.707 117.871C243.34 117.875 259.974 117.874 276.607 117.87C295.898 117.864 315.189 117.862 334.481 117.865C336.535 117.866 338.59 117.866 340.645 117.866C341.657 117.866 342.668 117.867 343.71 117.867C350.854 117.868 357.999 117.866 365.143 117.864C373.843 117.861 382.544 117.862 391.244 117.867C395.688 117.87 400.131 117.871 404.575 117.867C408.636 117.864 412.697 117.866 416.758 117.871C418.234 117.873 419.71 117.872 421.185 117.87C423.178 117.867 425.171 117.87 427.164 117.874C428.275 117.874 429.386 117.875 430.53 117.875C433 118 433 118 434 119C434.041 121 434.043 123.001 434 125C431.273 126.364 429.129 126.125 426.075 126.126C424.804 126.129 423.533 126.131 422.224 126.134C420.801 126.132 419.377 126.129 417.954 126.127C416.452 126.128 414.951 126.13 413.449 126.132C409.307 126.136 405.165 126.134 401.024 126.131C396.563 126.129 392.102 126.132 387.641 126.135C378.896 126.139 370.151 126.138 361.407 126.135C354.302 126.133 347.198 126.133 340.094 126.134C339.085 126.134 338.075 126.134 337.035 126.134C334.985 126.135 332.935 126.135 330.884 126.135C311.639 126.138 292.393 126.135 273.148 126.13C256.618 126.125 240.088 126.126 223.559 126.13C204.384 126.136 185.209 126.138 166.035 126.135C163.992 126.135 161.949 126.134 159.906 126.134C158.398 126.134 158.398 126.134 156.86 126.133C149.76 126.133 142.661 126.134 135.562 126.136C126.915 126.139 118.269 126.138 109.622 126.133C105.207 126.13 100.792 126.129 96.3762 126.133C92.3397 126.136 88.3033 126.134 84.2669 126.129C82.8013 126.128 81.3356 126.128 79.87 126.131C77.8884 126.134 75.9068 126.13 73.9252 126.126C72.8213 126.126 71.7174 126.126 70.5801 126.125C68 126 68 126 66 125C65.9575 123.001 65.9592 121 66 119C67.7853 117.215 70.4237 117.875 72.8362 117.874Z" fill="black"/>
<path d="M72.8362 392.874C74.1125 392.872 75.3888 392.869 76.7038 392.866C78.1386 392.869 79.5735 392.871 81.0083 392.873C82.5181 392.872 84.028 392.87 85.5378 392.868C89.7066 392.864 93.8754 392.866 98.0441 392.869C102.532 392.872 107.02 392.868 111.508 392.865C120.309 392.861 129.109 392.862 137.909 392.865C145.057 392.867 152.206 392.867 159.355 392.866C160.878 392.866 160.878 392.866 162.431 392.866C164.494 392.866 166.556 392.865 168.618 392.865C187.981 392.862 207.344 392.865 226.707 392.871C243.34 392.875 259.974 392.874 276.607 392.87C295.898 392.864 315.189 392.862 334.481 392.865C336.535 392.866 338.59 392.866 340.645 392.866C341.657 392.866 342.668 392.867 343.71 392.867C350.854 392.868 357.999 392.866 365.143 392.864C373.843 392.861 382.544 392.862 391.244 392.867C395.688 392.87 400.131 392.871 404.575 392.867C408.636 392.864 412.697 392.866 416.758 392.871C418.234 392.873 419.71 392.872 421.185 392.87C423.178 392.867 425.171 392.87 427.164 392.874C428.275 392.874 429.386 392.875 430.53 392.875C433 393 433 393 434 394C434.125 396.5 434.125 396.5 434 399C432.215 400.785 429.576 400.126 427.164 400.126C425.887 400.129 424.611 400.131 423.296 400.134C421.861 400.132 420.427 400.129 418.992 400.127C417.482 400.128 415.972 400.13 414.462 400.132C410.293 400.136 406.125 400.134 401.956 400.131C397.468 400.129 392.98 400.132 388.492 400.135C379.691 400.139 370.891 400.138 362.091 400.135C354.943 400.133 347.794 400.133 340.645 400.134C339.122 400.134 339.122 400.134 337.569 400.134C335.506 400.135 333.444 400.135 331.382 400.135C312.019 400.138 292.656 400.135 273.293 400.13C256.66 400.125 240.026 400.126 223.393 400.13C204.102 400.136 184.811 400.138 165.519 400.135C163.465 400.135 161.41 400.134 159.355 400.134C158.343 400.134 157.332 400.134 156.29 400.133C149.146 400.133 142.001 400.134 134.857 400.136C126.157 400.139 117.456 400.138 108.756 400.133C104.312 400.13 99.8687 400.129 95.4251 400.133C91.3641 400.136 87.303 400.134 83.2419 400.129C81.7662 400.128 80.2904 400.128 78.8147 400.131C76.8219 400.134 74.829 400.13 72.8362 400.126C71.7253 400.126 70.6144 400.126 69.4699 400.125C67 400 67 400 66 399C65.875 396.5 65.875 396.5 66 394C67.7853 392.215 70.4237 392.875 72.8362 392.874Z" fill="black"/>
<path d="M76.2537 187.839C76.9889 187.834 77.7242 187.829 78.4818 187.824C80.9137 187.809 83.3454 187.802 85.7773 187.797C87.4674 187.791 89.1575 187.785 90.8475 187.78C94.3908 187.769 97.934 187.763 101.477 187.76C106.018 187.754 110.559 187.73 115.099 187.702C118.59 187.683 122.081 187.678 125.571 187.677C127.246 187.673 128.92 187.665 130.594 187.652C132.935 187.635 135.276 187.637 137.617 187.644C138.309 187.634 139 187.625 139.713 187.616C143.762 187.651 146.05 188.166 149 191C146.752 200.402 144.119 209.672 141.375 218.938C141.047 220.049 141.047 220.049 140.713 221.183C137.408 232.393 133.98 243.56 130.475 254.709C128.291 261.705 126.194 268.719 124.168 275.762C123.926 276.604 123.683 277.447 123.433 278.315C122.245 282.452 121.064 286.592 119.893 290.733C114.256 310.555 114.256 310.555 111 318C107.642 319.679 103.853 319.163 100.16 319.168C99.2823 319.171 98.4044 319.175 97.4999 319.178C95.6413 319.183 93.7827 319.186 91.9241 319.185C89.0775 319.188 86.2313 319.206 83.3848 319.225C81.5807 319.228 79.7767 319.23 77.9727 319.231C77.1195 319.238 76.2663 319.245 75.3872 319.252C69.3432 319.229 69.3432 319.229 66 317C65.75 314.438 65.75 314.438 66 312C68.082 309.918 72.5339 310.742 75.4102 310.684C76.6732 310.653 76.6732 310.653 77.9618 310.621C80.6619 310.555 83.3622 310.496 86.0625 310.438C87.8887 310.394 89.7149 310.351 91.541 310.307C96.0272 310.199 100.514 310.098 105 310C108.494 299.84 111.625 289.619 114.564 279.287C118.132 266.751 121.789 254.25 125.688 241.813C128.697 232.202 131.671 222.584 134.562 212.938C134.91 211.795 135.257 210.652 135.614 209.474C135.928 208.419 136.243 207.364 136.566 206.277C136.844 205.352 137.122 204.426 137.408 203.473C138.155 200.775 138.155 200.775 138 197C137.127 196.99 136.255 196.979 135.356 196.969C127.145 196.871 118.934 196.768 110.723 196.661C106.501 196.606 102.28 196.552 98.0581 196.503C93.9862 196.455 89.9143 196.403 85.8425 196.347C84.2867 196.327 82.731 196.308 81.1752 196.291C79.001 196.267 76.8269 196.237 74.6528 196.205C72.7942 196.182 72.7942 196.182 70.898 196.158C68 196 68 196 66 195C66 193.02 66 191.04 66 189C69.4879 187.837 72.6251 187.845 76.2537 187.839Z" fill="black"/>
<path d="M362.156 187.871C363.261 187.868 363.261 187.868 364.389 187.865C366.831 187.861 369.273 187.864 371.715 187.867C373.409 187.866 375.103 187.865 376.797 187.864C380.35 187.863 383.904 187.865 387.457 187.87C392.015 187.875 396.572 187.872 401.13 187.866C404.629 187.862 408.128 187.864 411.628 187.866C413.308 187.867 414.989 187.866 416.669 187.864C419.018 187.861 421.366 187.865 423.715 187.871C424.76 187.867 424.76 187.867 425.826 187.864C428.836 187.878 431.119 188.039 434 189C434 190.98 434 192.96 434 195C431.111 196.444 428.575 196.165 425.347 196.205C424.664 196.215 423.981 196.225 423.278 196.235C421.016 196.267 418.754 196.292 416.492 196.316C414.926 196.337 413.359 196.358 411.793 196.379C407.666 196.435 403.54 196.484 399.414 196.532C395.204 196.582 390.995 196.638 386.785 196.693C378.524 196.801 370.262 196.902 362 197C362.512 200.874 363.048 204.619 364.177 208.363C364.412 209.154 364.648 209.944 364.89 210.759C365.147 211.601 365.404 212.444 365.668 213.312C365.94 214.219 366.211 215.125 366.491 216.059C367.385 219.041 368.286 222.02 369.188 225C369.814 227.084 370.44 229.169 371.066 231.253C372.042 234.503 373.018 237.754 373.996 241.003C376.316 248.709 378.615 256.421 380.903 264.137C381.533 266.262 382.164 268.388 382.794 270.514C383.701 273.572 384.608 276.63 385.513 279.688C388.521 289.847 391.526 299.989 395 310C396.666 310.038 396.666 310.038 398.365 310.076C402.476 310.17 406.587 310.27 410.698 310.372C412.479 310.416 414.26 310.457 416.041 310.497C418.598 310.555 421.155 310.619 423.711 310.684C424.51 310.7 425.309 310.717 426.132 310.734C431.772 310.886 431.772 310.886 434 312C434.188 314.375 434.188 314.375 434 317C430.055 319.63 426.642 319.306 422.063 319.301C421.186 319.305 420.31 319.309 419.407 319.314C417.554 319.319 415.701 319.32 413.849 319.316C411.011 319.312 408.174 319.336 405.336 319.361C403.537 319.364 401.737 319.364 399.938 319.363C399.088 319.372 398.238 319.382 397.362 319.391C391.421 319.344 391.421 319.344 389.311 317.616C387.631 315.544 387.038 313.664 386.274 311.109C385.969 310.106 385.664 309.103 385.35 308.069C385.028 306.974 384.707 305.878 384.375 304.75C384.03 303.601 383.684 302.452 383.328 301.269C380.485 291.77 377.739 282.242 374.994 272.715C372.311 263.401 369.521 254.125 366.625 244.875C365.3 240.62 363.977 236.364 362.656 232.108C362.195 230.626 361.733 229.143 361.271 227.661C359.691 222.596 358.127 217.527 356.582 212.451C356.072 210.784 355.556 209.119 355.035 207.455C354.308 205.129 353.599 202.798 352.895 200.465C352.561 199.42 352.561 199.42 352.221 198.354C351.363 195.455 350.835 193.524 351.757 190.596C354.466 187.119 358.127 187.859 362.156 187.871Z" fill="black"/>
<path d="M187.383 152.86C188.526 152.854 189.669 152.848 190.846 152.842C192.106 152.841 193.366 152.84 194.664 152.839C195.999 152.834 197.334 152.829 198.67 152.824C202.302 152.811 205.934 152.804 209.566 152.8C211.834 152.797 214.102 152.793 216.37 152.788C223.461 152.775 230.552 152.765 237.643 152.761C245.837 152.757 254.031 152.739 262.225 152.71C268.553 152.689 274.882 152.678 281.211 152.677C284.993 152.676 288.775 152.67 292.557 152.652C296.114 152.636 299.67 152.634 303.227 152.642C305.157 152.644 307.088 152.63 309.018 152.616C310.737 152.624 310.737 152.624 312.49 152.633C313.487 152.631 314.485 152.63 315.512 152.628C318 153 318 153 319.856 154.39C321 156 321 156 320.812 158.125C320 160 320 160 318 161C316.208 161.098 314.412 161.131 312.617 161.134C311.474 161.138 310.331 161.142 309.154 161.147C307.894 161.146 306.634 161.146 305.336 161.145C304.001 161.148 302.666 161.152 301.33 161.156C297.698 161.164 294.066 161.167 290.434 161.167C287.404 161.168 284.375 161.172 281.345 161.176C274.2 161.184 267.054 161.186 259.908 161.185C252.531 161.185 245.153 161.195 237.775 161.211C231.447 161.224 225.118 161.23 218.789 161.229C215.007 161.229 211.225 161.232 207.443 161.242C203.886 161.252 200.33 161.252 196.773 161.245C194.843 161.243 192.912 161.251 190.982 161.26C189.263 161.254 189.263 161.254 187.51 161.247C186.513 161.248 185.515 161.248 184.488 161.249C182 161 182 161 179 159C179.375 156.563 179.375 156.563 180 154C182.594 152.703 184.477 152.868 187.383 152.86Z" fill="black"/>
<path d="M359.052 152.853C359.775 152.854 360.497 152.854 361.242 152.855C362 152.851 362.757 152.848 363.538 152.844C366.055 152.835 368.573 152.833 371.09 152.832C372.832 152.829 374.575 152.825 376.318 152.822C379.975 152.816 383.633 152.814 387.291 152.815C391.986 152.815 396.682 152.801 401.378 152.784C404.978 152.773 408.579 152.771 412.179 152.771C413.911 152.77 415.642 152.766 417.374 152.758C419.792 152.748 422.21 152.751 424.629 152.757C425.349 152.751 426.07 152.746 426.812 152.74C431.772 152.772 431.772 152.772 434 155C434.125 157.625 434.125 157.625 434 160C431.009 161.495 427.941 161.156 424.66 161.161C423.904 161.166 423.148 161.171 422.369 161.176C419.862 161.191 417.355 161.198 414.848 161.203C413.109 161.209 411.37 161.215 409.631 161.22C405.984 161.231 402.336 161.237 398.689 161.24C394.01 161.246 389.331 161.27 384.653 161.298C381.061 161.317 377.469 161.322 373.877 161.324C372.152 161.327 370.427 161.335 368.701 161.348C366.29 161.365 363.88 161.363 361.469 161.356C360.396 161.37 360.396 161.37 359.301 161.384C354.443 161.343 354.443 161.343 352.033 159.478C351.522 158.746 351.522 158.746 351 158C353.256 153.339 353.742 152.888 359.052 152.853Z" fill="black"/>
<path d="M75.3396 152.823C76.0959 152.816 76.8521 152.81 77.6313 152.803C80.1383 152.783 82.6453 152.772 85.1523 152.762C86.0073 152.758 86.8623 152.754 87.7431 152.749C92.2658 152.729 96.7885 152.714 101.311 152.705C105.99 152.694 110.669 152.659 115.347 152.62C118.939 152.594 122.531 152.585 126.123 152.582C127.848 152.577 129.574 152.565 131.299 152.547C133.71 152.522 136.12 152.523 138.531 152.53C139.246 152.517 139.962 152.504 140.699 152.491C142.692 152.512 142.692 152.512 146 153C147.967 155.029 147.967 155.029 149 157C147.967 158.971 147.967 158.971 146 161C143.371 161.388 141.159 161.517 138.531 161.47C137.773 161.472 137.015 161.474 136.234 161.477C133.727 161.479 131.222 161.453 128.715 161.426C126.975 161.421 125.235 161.418 123.496 161.416C119.85 161.408 116.204 161.388 112.558 161.357C107.878 161.317 103.199 161.299 98.5186 161.289C94.0632 161.279 89.6078 161.26 85.1523 161.238C84.2985 161.235 83.4447 161.231 82.565 161.228C80.1565 161.216 77.7481 161.198 75.3396 161.177C74.2634 161.173 74.2634 161.173 73.1655 161.169C68.2298 161.115 68.2298 161.115 66 160C66 158.02 66 156.04 66 154C68.9896 152.505 72.0599 152.835 75.3396 152.823Z" fill="black"/>
<path d="M361.465 351.832C362.588 351.827 362.588 351.827 363.733 351.822C365.319 351.817 366.906 351.815 368.492 351.815C370.924 351.813 373.355 351.794 375.787 351.775C377.326 351.773 378.864 351.771 380.402 351.77C381.498 351.759 381.498 351.759 382.615 351.748C387.771 351.771 387.771 351.771 390 354C389.464 357.536 389.464 357.536 388 359C383.66 359.381 379.307 359.513 374.955 359.668C372.772 359.749 370.592 359.853 368.41 359.957C367.018 360.009 365.626 360.06 364.234 360.109C362.335 360.186 362.335 360.186 360.397 360.265C356.743 359.98 354.93 359.136 352 357C353.359 350.982 355.771 351.841 361.465 351.832Z" fill="black"/>
<path d="M119.465 351.832C120.588 351.827 120.588 351.827 121.733 351.822C123.319 351.817 124.906 351.815 126.492 351.815C128.924 351.813 131.355 351.794 133.787 351.775C135.326 351.773 136.864 351.771 138.402 351.77C139.498 351.759 139.498 351.759 140.615 351.748C145.771 351.771 145.771 351.771 148 354C147.938 356 147.938 356 147 358C142.944 360.145 139.552 360.194 135.02 360.047C134.365 360.027 133.711 360.006 133.038 359.985C131.663 359.94 130.289 359.889 128.915 359.834C126.809 359.75 124.703 359.688 122.596 359.629C121.258 359.582 119.92 359.534 118.582 359.484C117.367 359.44 116.153 359.396 114.902 359.351C112 359 112 359 110 357C110.925 350.893 114.07 351.84 119.465 351.832Z" fill="black"/>
<path d="M301.344 351.867C302.069 351.866 302.794 351.865 303.54 351.864C305.074 351.864 306.607 351.866 308.14 351.87C310.491 351.875 312.841 351.87 315.191 351.863C316.68 351.864 318.168 351.865 319.656 351.867C320.362 351.865 321.067 351.863 321.793 351.861C326.77 351.885 326.77 351.885 329 353C329 354.65 329 356.3 329 358C324.422 359.79 320.786 360.197 315.887 360.012C315.232 359.989 314.577 359.967 313.902 359.943C312.529 359.894 311.157 359.839 309.785 359.779C307.677 359.687 305.568 359.613 303.459 359.541C293.152 359.152 293.152 359.152 292 358C291.959 356.334 291.957 354.666 292 353C294.993 351.504 298.063 351.858 301.344 351.867Z" fill="black"/>
<path d="M240.465 351.832C241.588 351.827 241.588 351.827 242.733 351.822C244.319 351.817 245.906 351.815 247.492 351.815C249.924 351.813 252.355 351.794 254.787 351.775C256.326 351.773 257.864 351.771 259.402 351.77C260.498 351.759 260.498 351.759 261.615 351.748C266.771 351.771 266.771 351.771 269 354C268.464 357.536 268.464 357.536 267 359C264.502 359.113 262.034 359.164 259.535 359.168C258.412 359.173 258.412 359.173 257.267 359.178C255.681 359.183 254.094 359.186 252.508 359.185C250.076 359.188 247.645 359.206 245.213 359.225C243.674 359.228 242.136 359.23 240.598 359.231C239.502 359.241 239.502 359.241 238.385 359.252C233.229 359.229 233.229 359.229 231 357C231.925 350.893 235.07 351.84 240.465 351.832Z" fill="black"/>
<path d="M180.344 351.867C181.069 351.866 181.794 351.865 182.54 351.864C184.074 351.864 185.607 351.866 187.14 351.87C189.491 351.875 191.841 351.87 194.191 351.863C195.68 351.864 197.168 351.865 198.656 351.867C199.361 351.865 200.067 351.863 200.793 351.861C205.77 351.885 205.77 351.885 208 353C208.043 354.666 208.041 356.334 208 358C205.318 360.682 197.813 359.486 193.955 359.613C191.773 359.687 189.592 359.778 187.41 359.869C186.018 359.918 184.626 359.965 183.234 360.012C181.335 360.081 181.335 360.081 179.397 360.151C176.093 360.004 173.948 359.439 171 358C171 356.35 171 354.7 171 353C173.993 351.504 177.063 351.858 180.344 351.867Z" fill="black"/>
<path d="M416.864 351.757C417.969 351.763 417.969 351.763 419.098 351.77C419.899 351.771 420.7 351.773 421.525 351.775C422.363 351.788 423.2 351.8 424.062 351.812C425.324 351.813 425.324 351.813 426.611 351.814C432.86 351.86 432.86 351.86 434 353C434.125 355.5 434.125 355.5 434 358C433 359 433 359 431.142 359.114C430.352 359.108 429.561 359.103 428.746 359.098C427.892 359.094 427.038 359.091 426.158 359.088C425.26 359.08 424.363 359.071 423.438 359.062C422.536 359.058 421.634 359.053 420.705 359.049C418.47 359.037 416.235 359.021 414 359C413.375 356.625 413.375 356.625 413 354C415 352 415 352 416.864 351.757Z" fill="black"/>
<path d="M75.9375 351.812C76.7747 351.8 77.612 351.788 78.4746 351.775C79.6763 351.772 79.6763 351.772 80.9023 351.769C81.6396 351.765 82.3769 351.761 83.1365 351.757C85 352 85 352 87 354C86.625 356.625 86.625 356.625 86 359C82.8542 359.029 79.7084 359.047 76.5625 359.062C75.2158 359.075 75.2158 359.075 73.8418 359.088C72.5608 359.093 72.5608 359.093 71.2539 359.098C70.4631 359.103 69.6724 359.108 68.8577 359.113C67 359 67 359 66 358C65.875 355.5 65.875 355.5 66 353C68.1573 350.843 72.948 351.815 75.9375 351.812Z" fill="black"/>
<path d="M410.562 286.063C413 287 413 287 414.312 289.063C414.653 290.022 414.653 290.022 415 291C414.01 292.32 413.02 293.64 412 295C409.03 294.505 409.03 294.505 406 294C405.312 291.688 405.312 291.688 405 289C406.618 286.304 407.412 285.986 410.562 286.063Z" fill="black"/>
<path d="M92.625 211.625C95 213 95 213 95.8125 215.625C95.8744 216.409 95.9362 217.192 96 218C93.2013 219.399 91.095 219.253 88 219C86.125 217.5 86.125 217.5 85 216C85.8125 214.062 85.8125 214.062 87 212C90 211 90 211 92.625 211.625Z" fill="black"/>
<path d="M408 211C411.188 211.875 411.188 211.875 414 213C414 214.65 414 216.3 414 218C411.261 219.37 409.029 219.126 406 219C405.34 218.67 404.68 218.34 404 218C404.312 215.625 404.312 215.625 405 213C405.99 212.34 406.98 211.68 408 211Z" fill="black"/>
<path d="M397 248C398.938 248.562 398.938 248.562 401 250C401.75 253.625 401.75 253.625 402 257C400.02 257.99 400.02 257.99 398 259C397.01 258.34 396.02 257.68 395 257C394.312 253.375 394.312 253.375 394 250C394.99 249.34 395.98 248.68 397 248Z" fill="black"/>
<path d="M102 248C103.32 248.66 104.64 249.32 106 250C105.75 253.375 105.75 253.375 105 257C102.938 258.438 102.938 258.438 101 259C100.01 258.34 99.02 257.68 98 257C98.3125 253.625 98.3125 253.625 99 250C99.99 249.34 100.98 248.68 102 248Z" fill="black"/>
<path d="M402 267C404.438 267.625 404.438 267.625 407 269C407.938 272 407.938 272 408 275C407.34 275.66 406.68 276.32 406 277C401.444 276.444 401.444 276.444 400 275C399.812 272.062 399.812 272.062 400 269C400.66 268.34 401.32 267.68 402 267Z" fill="black"/>
<path d="M95.9999 267C98.1249 267.938 98.1249 267.938 99.9999 269C100.125 271.875 100.125 271.875 99.9999 275C99.3399 275.66 98.6799 276.32 97.9999 277C95.3749 276.625 95.3749 276.625 92.9999 276C91.9999 273 91.9999 273 92.8124 270.375C93.9999 268 93.9999 268 95.9999 267Z" fill="black"/>
<path d="M392 229C393.938 229.625 393.938 229.625 396 231C396.75 234.125 396.75 234.125 397 237C395.68 237.99 394.36 238.98 393 240C390.454 237.852 389.12 236.721 388.562 233.375C388.707 232.591 388.851 231.807 389 231C389.99 230.34 390.98 229.68 392 229Z" fill="black"/>
<path d="M107 229C108.32 229.66 109.64 230.32 111 231C110.75 234.375 110.75 234.375 110 238C107.938 239.438 107.938 239.438 106 240C104.438 238.875 104.438 238.875 103 237C103.125 233.938 103.125 233.938 104 231C104.99 230.34 105.98 229.68 107 229Z" fill="black"/>
<path d="M92.25 286.312C93.1163 286.653 93.1163 286.653 94 287C94.9342 290.01 95.0445 290.866 94 294C88.25 295.125 88.25 295.125 86 294C85.75 291.687 85.75 291.687 86 289C88.1368 286.71 89.0937 285.874 92.25 286.312Z" fill="black"/>
<path d="M109 212C111 211.957 113 211.959 115 212C116 213 116 213 116.062 216.063C116.042 217.032 116.021 218.001 116 219C114.02 219.99 114.02 219.99 112 221C110.35 219.35 108.7 217.7 107 216C107.66 214.68 108.32 213.36 109 212Z" fill="black"/>
<path d="M388 211.875C391 212 391 212 392 213C392.375 215.375 392.375 215.375 392 218C389.5 219.812 389.5 219.812 387 221C386.01 220.34 385.02 219.68 384 219C383.75 215.938 383.75 215.938 384 213C385 212 385 212 388 211.875Z" fill="black"/>
<path d="M432.25 287.875C433.116 288.432 433.116 288.432 434 289C434.043 290.666 434.041 292.334 434 294C433.67 294.33 433.34 294.66 433 295C430.661 294.713 428.326 294.381 426 294C426 292.35 426 290.7 426 289C429.446 286.785 429.446 286.785 432.25 287.875Z" fill="black"/>
<path d="M69 287C71.6875 287.875 71.6875 287.875 74 289C73.125 293.875 73.125 293.875 72 295C69.5 295.125 69.5 295.125 67 295C66 294 66 294 65.75 291.562C65.8325 290.717 65.915 289.871 66 289C66.99 288.34 67.98 287.68 69 287Z" fill="black"/>
<path d="M430.5 211.875C433 212 433 212 434 213C434.125 215.5 434.125 215.5 434 218C433.67 218.33 433.34 218.66 433 219C430.661 218.713 428.326 218.381 426 218C427.069 212.047 427.069 212.047 430.5 211.875Z" fill="black"/>
<path d="M69.4375 211.812C72 212 72 212 74 214C74 215.32 74 216.64 74 218C71.6739 218.381 69.3394 218.713 67 219C66 218 66 218 65.875 215.5C66.0415 212.17 66.1223 212.068 69.4375 211.812Z" fill="black"/>
</svg>
