<svg width="500" height="500" viewBox="0 0 500 500" fill="none" xmlns="http://www.w3.org/2000/svg">
<path d="M356.409 73.0033C359.167 74.4558 361.832 76.0138 364.5 77.6251C365.49 78.204 366.479 78.7828 367.499 79.3792C369.596 80.6081 371.69 81.8444 373.779 83.0875C377.004 85.0023 380.243 86.8899 383.488 88.7696C388.438 91.6386 393.386 94.5107 398.311 97.4215C400.124 98.486 401.947 99.5342 403.779 100.567C405.101 101.325 405.101 101.325 406.449 102.098C407.23 102.537 408.011 102.977 408.815 103.43C411.562 105.404 413.208 107.112 415 110C415.392 112.799 415.562 115.192 415.531 117.984C415.535 118.758 415.539 119.532 415.543 120.33C415.546 121.97 415.538 123.611 415.522 125.252C415.5 127.701 415.521 130.148 415.547 132.598C415.593 156.942 407.567 177.993 390.539 195.535C380.857 204.266 363.29 217.882 350.125 219.313C346.515 218.952 344.184 217.681 341 216C340.994 216.914 340.988 217.828 340.982 218.769C340.924 227.391 340.852 236.013 340.764 244.634C340.72 249.067 340.68 253.499 340.654 257.931C340.628 262.211 340.587 266.49 340.537 270.769C340.52 272.4 340.509 274.031 340.502 275.661C340.493 277.95 340.465 280.238 340.432 282.526C340.416 284.478 340.416 284.478 340.399 286.469C339.958 290.369 339.15 292.724 337 296C333.04 298.98 330.114 299.378 325.213 299.388C324.208 299.396 324.208 299.396 323.184 299.404C320.946 299.418 318.71 299.411 316.473 299.404C314.866 299.41 313.259 299.417 311.653 299.425C307.293 299.443 302.934 299.442 298.574 299.436C294.934 299.433 291.293 299.439 287.652 299.445C279.063 299.459 270.473 299.458 261.884 299.446C253.025 299.435 244.167 299.449 235.309 299.476C227.7 299.498 220.091 299.504 212.483 299.498C207.94 299.495 203.397 299.498 198.854 299.515C194.581 299.53 190.309 299.526 186.037 299.507C184.471 299.504 182.904 299.507 181.338 299.517C179.196 299.531 177.056 299.519 174.914 299.501C173.717 299.501 172.519 299.501 171.286 299.501C166.791 298.816 163.469 296.87 160.644 293.274C159.647 289.754 159.695 286.25 159.699 282.621C159.695 281.813 159.691 281.004 159.686 280.171C159.681 278.466 159.68 276.76 159.684 275.055C159.688 272.443 159.664 269.832 159.639 267.221C159.636 265.563 159.636 263.904 159.637 262.246C159.628 261.465 159.618 260.684 159.609 259.879C159.655 254.456 159.655 254.456 161.523 251.985C162.01 251.66 162.498 251.335 163 251C164.32 251.66 165.64 252.32 167 253C167.025 254.116 167.05 255.231 167.076 256.381C167.17 260.505 167.27 264.629 167.372 268.753C167.416 270.541 167.457 272.329 167.497 274.117C167.555 276.681 167.619 279.245 167.684 281.809C167.7 282.613 167.717 283.417 167.734 284.246C167.492 287.927 167.492 287.927 169 291C170.565 291.123 172.134 291.178 173.703 291.205C174.704 291.225 175.705 291.245 176.737 291.266C177.825 291.283 178.914 291.299 180.035 291.316C181.698 291.348 181.698 291.348 183.394 291.379C186.95 291.445 190.506 291.504 194.063 291.563C196.467 291.606 198.871 291.649 201.275 291.693C207.184 291.801 213.092 291.903 219 292C218.99 290.413 218.99 290.413 218.98 288.793C218.919 278.831 218.874 268.87 218.845 258.908C218.829 253.786 218.808 248.664 218.774 243.542C218.741 238.602 218.723 233.661 218.715 228.72C218.71 226.833 218.699 224.946 218.683 223.059C218.661 220.42 218.658 217.782 218.659 215.143C218.649 214.359 218.638 213.575 218.627 212.768C218.644 209.835 218.659 207.573 220.182 205.015C222.691 203.614 224.562 203.619 227.434 203.612C228.545 203.602 229.656 203.593 230.801 203.583C232.601 203.592 232.601 203.592 234.438 203.602C235.669 203.599 236.901 203.596 238.17 203.593C241.444 203.59 244.717 203.602 247.991 203.619C249.998 203.625 252.005 203.619 254.013 203.609C257.863 203.59 261.712 203.593 265.563 203.602C266.763 203.596 267.963 203.59 269.199 203.583C270.866 203.597 270.866 203.597 272.566 203.612C274.035 203.615 274.035 203.615 275.533 203.619C278 204 278 204 279.818 205.015C281.716 208.203 281.39 211.542 281.341 215.143C281.341 215.973 281.341 216.802 281.342 217.657C281.34 220.401 281.317 223.143 281.293 225.887C281.287 227.788 281.283 229.69 281.28 231.591C281.269 236.597 281.239 241.603 281.206 246.609C281.175 251.716 281.162 256.824 281.147 261.932C281.114 271.955 281.063 281.977 281 292C288.103 291.883 295.205 291.758 302.307 291.628C304.726 291.584 307.144 291.543 309.562 291.503C313.03 291.445 316.497 291.382 319.965 291.316C321.598 291.291 321.598 291.291 323.263 291.266C324.264 291.246 325.265 291.226 326.297 291.205C327.183 291.19 328.069 291.174 328.982 291.158C330.996 291.22 330.996 291.22 332 290C332.125 287.506 332.186 285.038 332.205 282.543C332.215 281.762 332.225 280.982 332.235 280.178C332.267 277.586 332.292 274.994 332.316 272.402C332.337 270.61 332.358 268.818 332.379 267.026C332.435 262.299 332.484 257.573 332.532 252.846C332.582 248.027 332.638 243.208 332.693 238.389C332.801 228.926 332.903 219.463 333 210C332.223 209.695 331.446 209.391 330.645 209.077C312.278 201.601 299.548 186.385 291 169C287 158.938 287 158.938 287 155C286.316 154.772 285.631 154.544 284.926 154.309C281.303 152.688 278.327 150.449 275.188 148.063C273.862 147.079 272.535 146.098 271.207 145.117C269.077 143.54 266.947 141.961 264.822 140.376C262.686 138.794 260.533 137.239 258.375 135.688C257.713 135.189 257.05 134.691 256.368 134.178C252.787 131.557 252.787 131.557 248.523 131.371C245.033 133.624 241.615 135.938 238.25 138.375C236.724 139.466 235.198 140.558 233.672 141.649C232.895 142.206 232.119 142.764 231.318 143.339C227.726 145.913 224.113 148.456 220.5 151C219.083 152 217.667 153 216.25 154C213.417 156 210.583 158 207.75 160C207.048 160.495 206.346 160.991 205.623 161.501C204.212 162.497 202.801 163.493 201.39 164.489C197.761 167.051 194.132 169.613 190.504 172.176C189.76 172.701 189.016 173.226 188.25 173.768C186.853 174.754 185.456 175.741 184.059 176.729C183.412 177.186 182.764 177.643 182.098 178.113C181.452 178.597 180.806 179.08 180.141 179.578C178 181 178 181 175.313 182.123C171.945 183.754 170.223 184.955 168 188C166.153 195.251 166.74 203.021 166.875 210.438C166.877 212.525 166.874 214.613 166.867 216.701C166.859 221.802 166.913 226.9 167 232C165.02 232.99 165.02 232.99 163 234C161.515 233.01 161.515 233.01 160 232C159.733 229.092 159.652 226.399 159.707 223.492C159.711 222.652 159.716 221.811 159.72 220.945C159.737 218.255 159.774 215.565 159.813 212.875C159.828 211.053 159.841 209.232 159.854 207.41C159.887 202.94 159.938 198.47 160 194C158.895 194.651 157.791 195.303 156.653 195.974C152.864 198.208 150.479 198.528 146.145 197.805C142.209 196.328 140.221 193.441 138 190C137.361 189.01 136.721 188.02 136.063 187C134.69 183.125 134.854 180.94 136 177C139.453 173.14 143.374 170.074 147.563 167.063C148.206 166.595 148.85 166.128 149.512 165.646C155.75 161.136 162.065 156.735 168.381 152.337C173.985 148.429 179.538 144.458 185.063 140.438C191.915 135.455 198.869 130.642 205.879 125.886C211.47 122.081 216.97 118.167 222.438 114.188C244.923 97.8369 244.923 97.8369 254 99.0001C260.39 101.336 265.834 105.55 271.25 109.563C272.039 110.139 272.828 110.716 273.641 111.311C277.111 113.852 280.562 116.417 284 119C284.075 118.264 284.15 117.528 284.227 116.77C284.358 115.794 284.49 114.818 284.625 113.813C284.741 112.85 284.857 111.887 284.977 110.895C287.105 104.875 293.762 101.669 299.063 98.5626C299.661 98.1868 300.26 97.8111 300.877 97.4239C302.66 96.379 302.66 96.379 306 95.0001C308.934 95.7774 308.934 95.7774 311 97.0001C311.035 99.3009 311.035 99.3009 310 102C308.324 102.802 308.324 102.802 306.184 103.481C300.785 105.309 296.308 107.164 293 112C291.639 117.552 291.558 122.932 291.688 128.625C291.707 129.717 291.707 129.717 291.727 130.83C292.087 144.322 294.287 158.367 300.75 170.375C301.097 171.036 301.443 171.697 301.8 172.378C310.11 187.764 322.899 196.326 337.5 205.188C338.456 205.777 339.412 206.367 340.397 206.974C341.308 207.512 342.218 208.051 343.156 208.606C343.969 209.092 344.782 209.578 345.619 210.079C348.579 211.224 350.002 210.949 353 210C355.066 209.122 355.066 209.122 357.039 207.996C357.779 207.589 358.519 207.182 359.282 206.763C360.442 206.107 360.442 206.107 361.625 205.438C362.425 204.989 363.224 204.54 364.048 204.077C370.392 200.46 376.268 196.536 382 192C382.628 191.548 383.256 191.095 383.902 190.629C397.643 180.129 405.056 161.379 407.301 144.772C407.766 140.276 407.957 135.797 408.016 131.279C408.047 129.744 408.109 128.21 408.2 126.678C408.508 121.505 408.482 116.999 407 112C403.714 108.608 400.153 106.758 395.857 104.855C392.813 103.454 389.978 101.707 387.098 100C385.929 99.3307 384.759 98.664 383.588 98.0001C383.006 97.6701 382.425 97.3401 381.825 97.0001C381.244 96.6701 380.662 96.3401 380.063 96.0001C378.305 95 376.547 93.9993 374.79 92.9979C373.626 92.3361 372.461 91.6767 371.293 91.0199C368.232 89.2936 365.208 87.5257 362.214 85.6837C361.592 85.3079 360.969 84.9322 360.328 84.545C358.596 83.4982 356.875 82.4352 355.154 81.3712C351.465 79.7677 349.81 79.8586 346 81.0001C344.016 81.9013 344.016 81.9013 342.309 83.1017C341.356 83.7127 341.356 83.7127 340.385 84.336C339.08 85.1996 337.778 86.0668 336.479 86.9376C331.612 90.0468 331.612 90.0468 328.035 89.7735C327.364 89.5183 326.692 89.2631 326 89.0001C325.67 87.6801 325.34 86.3601 325 85.0001C330.063 81.2877 335.206 77.7384 340.625 74.5626C341.463 74.0689 342.301 73.5752 343.164 73.0665C347.941 71.2701 351.729 71.0543 356.409 73.0033ZM242.25 108.688C241.295 109.33 240.34 109.972 239.356 110.633C233.815 114.512 228.346 118.492 222.879 122.473C217.962 126.043 212.987 129.528 208 133C201.599 137.459 195.245 141.973 188.938 146.563C182.023 151.592 175.001 156.443 167.927 161.244C159.104 167.253 150.531 173.586 142 180C142.445 185.04 144.713 187.376 148 191C153.263 190.561 156.636 187.715 160.75 184.688C162.276 183.587 163.802 182.487 165.328 181.387C166.105 180.823 166.881 180.259 167.682 179.677C171.265 177.085 174.883 174.544 178.5 172C179.917 171 181.334 170 182.75 169C191.25 163 191.25 163 193.375 161.5C194.792 160.5 196.21 159.499 197.627 158.498C201.154 156.007 204.683 153.519 208.215 151.035C216.414 145.265 224.574 139.448 232.674 133.539C234.066 132.527 235.464 131.522 236.867 130.525C238.366 129.453 239.85 128.359 241.32 127.249C247.106 123.053 247.106 123.053 251.125 122.817C254.884 124.364 257.81 126.445 261 128.938C262.316 129.933 263.632 130.928 264.949 131.922C265.616 132.431 266.283 132.939 266.97 133.463C270.216 135.921 273.509 138.31 276.813 140.688C277.405 141.121 277.997 141.555 278.607 142.002C281.509 144.288 281.509 144.288 285 145C286.031 139.313 286.901 133.584 285 128C281.188 123.198 275.532 120.309 270.275 117.326C266.893 115.355 263.742 113.091 260.563 110.813C254.036 106.279 249.486 103.805 242.25 108.688ZM226 210C226 237.06 226 264.12 226 292C241.84 292 257.68 292 274 292C274 264.94 274 237.88 274 210C258.16 210 242.32 210 226 210Z" fill="black"/>
<path d="M102.125 218.563C110.353 222.25 115.763 227.587 119 236C119.951 238.855 120.122 240.605 120.113 243.563C120.113 244.484 120.113 245.405 120.113 246.353C120.108 247.344 120.103 248.335 120.098 249.356C120.096 250.372 120.095 251.389 120.093 252.437C120.088 255.687 120.075 258.937 120.062 262.188C120.057 264.39 120.053 266.593 120.049 268.795C120.038 274.197 120.021 279.598 120 285C121.279 284.814 122.557 284.629 123.875 284.438C129.724 284.451 132.424 287.392 136.43 291.35C137.278 292.225 138.126 293.099 139 294C140.727 295.677 142.456 297.352 144.187 299.026C146.009 300.828 147.828 302.633 149.644 304.442C150.366 305.159 150.366 305.159 151.102 305.891C153.639 308.413 156.174 310.938 158.706 313.466C161.299 316.053 163.901 318.631 166.506 321.208C168.531 323.214 170.55 325.228 172.567 327.243C173.983 328.655 175.406 330.059 176.829 331.464C185.751 340.416 191.207 347.942 191.29 361.049C191.297 361.715 191.304 362.381 191.311 363.068C191.33 365.246 191.334 367.423 191.336 369.602C191.342 371.127 191.349 372.652 191.356 374.177C191.368 377.362 191.372 380.548 191.37 383.734C191.37 387.81 191.398 391.886 191.432 395.963C191.454 399.108 191.458 402.253 191.457 405.398C191.46 406.901 191.468 408.404 191.484 409.907C191.504 412.008 191.498 414.108 191.486 416.21C191.489 417.403 191.491 418.597 191.494 419.826C190.893 423.689 189.843 425.344 187 428C184.761 428.628 184.761 428.628 182.295 428.631C181.367 428.644 180.439 428.656 179.483 428.669C177.991 428.649 177.991 428.649 176.469 428.629C174.927 428.633 174.927 428.633 173.353 428.636C171.181 428.635 169.009 428.622 166.837 428.597C163.512 428.563 160.189 428.576 156.863 428.596C154.752 428.589 152.642 428.579 150.531 428.567C149.536 428.571 148.541 428.576 147.516 428.582C140.773 428.466 140.773 428.466 137.371 426.413C135.486 423.095 135.518 420.629 135.531 416.82C135.524 416.13 135.517 415.44 135.51 414.728C135.48 411.787 135.497 408.846 135.509 405.905C135.512 403.751 135.491 401.599 135.469 399.445C135.473 398.162 135.478 396.878 135.482 395.555C134.396 387.55 127.956 382.72 122.427 377.307C120.949 375.86 119.479 374.406 118.01 372.951C113.836 368.816 109.649 364.694 105.459 360.576C102.887 358.046 100.322 355.51 97.7616 352.969C96.3262 351.549 94.8822 350.138 93.438 348.727C84.5175 339.874 77.8383 331.962 77.7066 318.974C77.7075 318.07 77.7084 317.166 77.7094 316.234C77.7026 315.268 77.6959 314.301 77.689 313.305C77.67 310.12 77.6661 306.935 77.6639 303.75C77.6575 301.531 77.6508 299.312 77.6438 297.093C77.6318 292.446 77.6281 287.799 77.6293 283.152C77.6295 277.2 77.6021 271.249 77.5677 265.297C77.5455 260.716 77.5414 256.135 77.5425 251.554C77.5401 249.36 77.5313 247.165 77.5158 244.971C77.4962 241.902 77.502 238.834 77.514 235.766C77.5028 234.862 77.4916 233.958 77.48 233.026C77.5349 227.518 78.3318 224.374 81.9999 220C87.6652 215.001 95.4704 216.184 102.125 218.563ZM84.9999 227C84.3853 230.062 84.4541 233.096 84.4823 236.21C84.4753 237.153 84.4683 238.097 84.4611 239.069C84.4434 242.196 84.4551 245.322 84.4686 248.449C84.4659 250.623 84.4621 252.797 84.457 254.971C84.4511 259.533 84.4597 264.095 84.4784 268.657C84.5011 274.494 84.4881 280.329 84.4641 286.166C84.4496 290.659 84.4543 295.151 84.4646 299.644C84.4673 301.795 84.464 303.946 84.4547 306.097C84.4445 309.113 84.4601 312.128 84.4823 315.143C84.4742 316.026 84.4661 316.909 84.4578 317.819C84.5706 326.131 87.4732 331.847 93.141 337.896C93.9304 338.741 94.7198 339.586 95.5331 340.456C99.5414 344.59 103.62 348.644 107.742 352.664C109.568 354.463 111.394 356.263 113.219 358.063C116.057 360.857 118.898 363.649 121.751 366.429C124.53 369.142 127.294 371.87 130.055 374.602C130.908 375.426 131.761 376.25 132.64 377.099C139.484 383.912 142.291 389.244 142.512 399.125C142.545 400.283 142.578 401.44 142.612 402.633C142.637 404.074 142.662 405.515 142.687 407C142.842 413.93 142.842 413.93 143 421C156.53 421 170.06 421 184 421C184.087 409.465 184.087 409.465 184.146 397.93C184.164 393.22 184.185 388.511 184.226 383.802C184.259 380.002 184.277 376.203 184.285 372.403C184.29 370.958 184.301 369.514 184.317 368.069C184.473 353.614 182.146 347.403 172 337C171.173 336.139 170.346 335.278 169.495 334.391C163.844 328.544 158.102 322.785 152.37 317.02C150.276 314.912 148.189 312.798 146.109 310.677C143.574 308.093 141.028 305.522 138.472 302.959C137.506 301.986 136.544 301.009 135.587 300.028C134.255 298.665 132.906 297.318 131.556 295.972C130.794 295.203 130.033 294.434 129.249 293.641C127.099 291.804 127.099 291.804 124.352 291.615C121.772 291.803 121.772 291.803 119.812 294.188C116.563 299.23 115.383 302.936 116 309C119.318 318.009 126.571 323.809 133.393 330.236C134.975 331.734 136.543 333.247 138.109 334.762C139.047 335.648 139.985 336.535 140.952 337.448C143 340 143 340 143.306 342.827C143.205 343.544 143.104 344.261 143 345C138.118 344.593 135.648 342.22 132.367 338.863C131.849 338.346 131.33 337.829 130.796 337.297C129.704 336.203 128.616 335.104 127.534 334C125.886 332.323 124.22 330.666 122.551 329.01C121.488 327.941 120.427 326.872 119.367 325.801C118.873 325.31 118.379 324.819 117.871 324.313C112.452 318.747 110.335 313.35 109.75 305.75C109.966 302.51 110.336 300.92 111.488 298.028C113.452 292.302 113.45 286.814 113.433 280.809C113.441 279.092 113.441 279.092 113.449 277.34C113.456 274.932 113.454 272.524 113.446 270.117C113.437 266.445 113.466 262.775 113.498 259.104C113.5 256.755 113.499 254.407 113.496 252.059C113.507 250.969 113.518 249.879 113.53 248.756C113.461 241.218 112.318 235.845 107.254 229.977C101.23 225.163 91.4174 219.613 84.9999 227Z" fill="black"/>
<path d="M415.312 218.125C418.668 220.466 420.064 222.376 422 226C422.566 229.244 422.547 232.431 422.517 235.718C422.524 236.68 422.531 237.642 422.539 238.633C422.556 241.804 422.545 244.974 422.531 248.145C422.534 250.357 422.538 252.568 422.543 254.78C422.549 259.415 422.54 264.049 422.521 268.683C422.499 274.608 422.512 280.532 422.536 286.457C422.55 291.025 422.545 295.593 422.535 300.162C422.532 302.345 422.536 304.529 422.545 306.712C422.555 309.773 422.54 312.833 422.517 315.894C422.525 316.787 422.534 317.68 422.542 318.601C422.343 333.543 412.024 343.304 401.956 353.194C400.472 354.652 398.994 356.117 397.518 357.584C394.393 360.687 391.259 363.781 388.125 366.875C384.468 370.484 380.815 374.097 377.17 377.718C375.716 379.159 374.255 380.595 372.795 382.03C371.916 382.902 371.038 383.773 370.133 384.671C368.969 385.82 368.969 385.82 367.781 386.992C364.474 390.721 364.865 394.367 364.824 399.152C364.801 400.583 364.777 402.013 364.752 403.443C364.717 405.693 364.687 407.942 364.674 410.191C364.658 412.366 364.618 414.54 364.574 416.715C364.559 418.016 364.545 419.316 364.53 420.656C364 424 364 424 362.622 426.42C358.432 428.945 354.27 428.59 349.469 428.566C348.44 428.573 347.412 428.579 346.353 428.585C344.181 428.592 342.009 428.589 339.837 428.577C336.511 428.563 333.189 428.597 329.863 428.635C327.752 428.636 325.642 428.634 323.531 428.629C322.039 428.649 322.039 428.649 320.516 428.669C313.712 428.577 313.712 428.577 310.37 425.87C308.755 422.488 308.512 420.2 308.539 416.457C308.543 415.219 308.547 413.981 308.551 412.705C308.575 411.421 308.6 410.136 308.625 408.813C308.626 407.516 308.627 406.22 308.629 404.885C308.719 395.281 308.719 395.281 311 393C314.536 393.536 314.536 393.536 316 395C316.087 396.927 316.107 398.857 316.097 400.785C316.095 401.838 316.092 402.892 316.09 403.977C316.081 405.325 316.072 406.673 316.062 408.063C316.042 412.332 316.021 416.601 316 421C329.53 421 343.06 421 357 421C356.882 411.816 356.882 411.816 356.73 402.633C356.722 401.475 356.715 400.318 356.707 399.125C356.691 397.952 356.675 396.779 356.659 395.57C357.654 385.146 363.442 379.927 370.617 373C371.678 371.956 372.738 370.91 373.797 369.863C376.576 367.12 379.368 364.391 382.165 361.666C386.636 357.309 391.093 352.937 395.538 348.552C397.082 347.034 398.636 345.527 400.192 344.02C409.745 335.059 409.745 335.059 414.131 323.124C414.134 322.416 414.137 321.707 414.14 320.977C414.146 320.161 414.152 319.345 414.158 318.504C414.159 317.613 414.16 316.721 414.161 315.803C414.166 314.861 414.171 313.919 414.176 312.949C414.191 309.831 414.197 306.712 414.203 303.594C414.209 301.431 414.214 299.267 414.22 297.104C414.231 292.568 414.237 288.032 414.24 283.496C414.246 277.675 414.27 271.854 414.298 266.033C414.317 261.565 414.322 257.097 414.323 252.63C414.326 250.483 414.334 248.336 414.348 246.19C414.365 243.192 414.363 240.195 414.356 237.197C414.365 236.306 414.375 235.414 414.384 234.496C414.379 233.68 414.373 232.864 414.367 232.023C414.369 231.315 414.37 230.606 414.372 229.876C413.878 227.384 413.019 226.509 411 225C404.709 224.254 400.213 225.372 395 229C390.955 232.737 388.304 237.024 387.739 242.553C387.732 243.908 387.732 243.908 387.725 245.29C387.716 246.322 387.706 247.353 387.696 248.416C387.697 249.522 387.698 250.627 387.699 251.766C387.693 253.488 387.693 253.488 387.686 255.244C387.68 257.672 387.68 260.099 387.684 262.527C387.687 266.223 387.664 269.918 387.638 273.613C387.636 275.977 387.636 278.34 387.637 280.703C387.627 281.8 387.618 282.898 387.609 284.028C387.643 289.853 388.166 294.685 390.32 300.122C392.213 305.351 391 310.595 389.116 315.635C385.325 323.667 377.005 330.301 370.875 336.563C369.994 337.489 369.114 338.415 368.207 339.369C367.352 340.239 366.498 341.108 365.617 342.004C364.466 343.192 364.466 343.192 363.292 344.405C361 346 361 346 358.211 345.75C357.481 345.502 356.752 345.255 356 345C355.662 342.859 355.662 342.859 356 340C357.743 337.869 359.399 336.112 361.398 334.254C361.948 333.72 362.499 333.187 363.065 332.637C364.824 330.933 366.597 329.246 368.375 327.563C370.144 325.882 371.91 324.197 373.663 322.499C374.753 321.444 375.852 320.398 376.962 319.363C381.303 315.164 382.717 311.542 383.375 305.625C382.907 301.106 381.311 296.311 378 293C375.678 292.533 375.678 292.533 373 293C370.355 294.898 370.355 294.898 367.814 297.571C367.322 298.057 366.831 298.543 366.324 299.044C364.702 300.654 363.099 302.281 361.496 303.91C360.37 305.038 359.243 306.164 358.116 307.29C355.754 309.654 353.4 312.026 351.053 314.405C348.055 317.443 345.04 320.462 342.018 323.476C339.688 325.803 337.366 328.138 335.046 330.475C333.938 331.59 332.827 332.704 331.715 333.815C330.154 335.377 328.604 336.949 327.056 338.524C326.174 339.414 325.292 340.305 324.383 341.222C319.602 346.794 317.008 352.169 316.719 359.512C316.681 360.352 316.644 361.191 316.605 362.057C316.535 363.822 316.464 365.588 316.394 367.354C316.357 368.19 316.32 369.026 316.281 369.887C316.251 370.652 316.22 371.417 316.189 372.206C316 374 316 374 315 375C312.5 375.125 312.5 375.125 310 375C307.741 372.742 308.767 367.528 308.75 364.5C308.729 363.626 308.709 362.752 308.687 361.852C308.605 348.001 314.823 340.164 324.245 330.512C326.253 328.49 328.274 326.481 330.297 324.473C331.378 323.392 332.46 322.311 333.541 321.23C335.79 318.982 338.043 316.738 340.298 314.496C343.187 311.624 346.07 308.745 348.95 305.864C351.175 303.64 353.402 301.418 355.631 299.196C356.695 298.135 357.759 297.073 358.822 296.011C360.303 294.532 361.787 293.057 363.272 291.582C364.536 290.324 364.536 290.324 365.826 289.04C369.196 285.877 371.126 284.743 375.687 284.875C376.496 284.893 377.304 284.911 378.137 284.93C378.751 284.953 379.366 284.976 380 285C379.968 283.034 379.968 283.034 379.936 281.028C379.863 276.127 379.818 271.225 379.78 266.323C379.76 264.209 379.733 262.095 379.698 259.981C379.649 256.927 379.627 253.874 379.609 250.82C379.589 249.888 379.568 248.955 379.547 247.994C379.543 238.478 382.541 230.637 389.066 223.692C396.291 217.372 406.176 215.022 415.312 218.125Z" fill="black"/>
<path d="M354 96.9999C358.1 98.8477 361.869 101.133 365.688 103.5C367.276 104.457 367.276 104.457 368.897 105.434C371.941 107.274 374.971 109.135 378 111C379.461 111.882 380.923 112.763 382.387 113.641C390.592 118.592 390.592 118.592 393 121C395.494 140.745 392.075 158.146 380.344 174.277C375.993 179.623 370.793 183.335 365 187C363.978 187.657 362.956 188.315 361.902 188.992C352.522 194.781 352.522 194.781 347 194C344.41 192.783 342.15 191.575 339.75 190.062C338.766 189.455 338.766 189.455 337.762 188.836C331.937 185.146 326.842 180.915 322 176C321.429 175.439 320.858 174.878 320.27 174.301C309.521 162.889 306.779 148.135 306.5 133.062C306.469 132.055 306.438 131.047 306.407 130.008C306.407 129.048 306.406 128.087 306.406 127.098C306.399 126.237 306.392 125.376 306.385 124.488C307.519 119.9 311.026 117.642 314.827 115.135C315.84 114.564 316.852 113.994 317.895 113.406C319.015 112.768 320.136 112.13 321.291 111.473C322.465 110.815 323.638 110.157 324.812 109.5C327.112 108.201 329.41 106.897 331.707 105.594C332.798 104.981 333.89 104.369 335.014 103.738C337.544 102.265 339.922 100.698 342.324 99.0311C346.18 96.6505 349.568 95.8498 354 96.9999ZM338.08 109.766C334.165 112.185 330.343 114.354 326.102 116.152C319.371 119.117 319.371 119.117 314 124C309.985 135.521 314.298 150.133 319.25 160.656C324.542 170.399 332.477 177.409 341.75 183.25C342.376 183.657 343.002 184.065 343.646 184.484C346.778 186.347 348.486 187.093 352.117 186.433C367.709 178.68 378.055 168.601 384.273 152.191C387.156 143.497 389.546 132.734 386 124C380.309 118.042 372.474 114.782 365.06 111.453C361.215 109.627 357.691 107.43 354.134 105.101C348.113 101.993 343.092 106.642 338.08 109.766Z" fill="black"/>
<path d="M371 132C371.727 133.695 371.727 133.695 372 136C369.9 139.424 367.162 142.326 364.493 145.322C363.445 146.5 362.406 147.686 361.374 148.878C359.682 150.829 357.97 152.761 356.25 154.688C355.708 155.312 355.166 155.936 354.607 156.58C354.082 157.155 353.557 157.731 353.016 158.324C352.554 158.841 352.093 159.357 351.618 159.889C349.278 161.496 347.777 161.406 345 161C343.163 159.639 343.163 159.639 341.484 157.754C340.873 157.082 340.262 156.409 339.633 155.717C339.011 155.006 338.39 154.295 337.75 153.563C336.795 152.502 336.795 152.502 335.82 151.42C334.647 150.116 333.48 148.806 332.319 147.491C331.567 146.641 330.802 145.802 330 145C329.959 143.334 329.957 141.666 330 140C332.145 139.168 332.145 139.168 335 139C337.174 140.723 338.852 142.283 340.688 144.313C341.173 144.825 341.658 145.337 342.158 145.865C343.451 147.233 344.726 148.616 346 150C346.66 150.66 347.32 151.32 348 152C349.186 150.713 350.372 149.426 351.556 148.138C352.564 147.042 353.574 145.948 354.584 144.855C358.01 141.136 361.265 137.324 364.367 133.328C366.603 131.509 368.201 131.753 371 132Z" fill="black"/>
</svg>
