<svg width="500" height="500" viewBox="0 0 500 500" fill="none" xmlns="http://www.w3.org/2000/svg">
<path d="M166.019 84.3984C175.451 91.7648 182.233 103.452 185 115C185.923 115.001 186.846 115.003 187.797 115.004C210.318 115.041 232.839 115.101 255.36 115.184C266.252 115.224 277.143 115.256 288.034 115.271C297.533 115.284 307.032 115.311 316.53 115.355C321.554 115.377 326.578 115.393 331.602 115.392C336.343 115.391 341.084 115.409 345.825 115.441C347.553 115.45 349.282 115.451 351.01 115.446C364.984 115.406 378.653 116.945 391.25 123.562C391.904 123.9 392.558 124.237 393.232 124.585C409.587 133.466 420.87 149.315 426.312 166.875C431.326 187.01 427.534 206.387 417 224C407.013 238.882 391.865 249.783 374.248 253.595C367.211 254.819 360.463 255.27 353.328 255.195C352.279 255.192 351.231 255.19 350.151 255.187C346.85 255.176 343.55 255.151 340.25 255.125C337.992 255.115 335.734 255.106 333.476 255.098C327.984 255.076 322.492 255.042 317 255C317.035 256.074 317.069 257.148 317.105 258.254C317.133 259.69 317.161 261.126 317.187 262.562C317.212 263.267 317.238 263.971 317.263 264.697C317.354 271.259 315.901 275.814 311.5 280.875C309 283 309 283 306 284C306.021 284.574 306.042 285.149 306.063 285.741C306.147 288.369 306.199 290.996 306.25 293.625C306.283 294.529 306.317 295.432 306.351 296.363C306.438 302.282 305.886 305.468 302 310C298.126 313.418 294.331 313.465 289.367 313.273C286.079 312.894 284.428 312.285 282 310C276.145 301.929 278 297.192 278 286C259.52 286 241.04 286 222 286C222 291.28 222 296.56 222 302C220.447 306.427 219.243 308.83 215.875 312C211.538 313.508 207.536 313.654 203 313C198.481 310.782 196.057 308.567 194 304C193.64 300.553 193.717 297.148 193.812 293.687C193.826 292.756 193.839 291.825 193.853 290.865C193.888 288.576 193.938 286.288 194 284C193.231 283.74 192.463 283.479 191.672 283.211C188.886 281.948 187.923 281.113 186.25 278.625C185.842 278.04 185.435 277.454 185.015 276.852C182.569 272.392 182.88 267.71 182.937 262.75C182.942 262.005 182.946 261.26 182.951 260.492C182.963 258.661 182.981 256.831 183 255C176.241 255.042 169.482 255.115 162.724 255.207C160.429 255.236 158.135 255.257 155.84 255.271C132.136 255.359 132.136 255.359 112 267C103.538 276.371 100.258 287.184 100.683 299.68C101.677 310.105 106.038 319.615 113.75 326.812C126.048 336.707 139.516 337.291 154.73 337.414C156.217 337.433 157.703 337.452 159.19 337.473C163.064 337.524 166.939 337.563 170.814 337.601C174.783 337.641 178.752 337.692 182.72 337.742C190.48 337.838 198.24 337.923 206 338C207.125 341.75 207.125 341.75 206 344C196.559 344.093 187.118 344.164 177.676 344.207C173.291 344.228 168.906 344.256 164.521 344.302C160.281 344.346 156.04 344.369 151.8 344.379C150.191 344.387 148.582 344.401 146.973 344.423C131.498 344.624 118.548 341.605 106.746 330.969C96.2533 319.978 92.504 307.566 92.7537 292.746C93.5545 280.556 98.8592 270.007 107 261C109.875 258.586 109.875 258.586 113 256.375C114.516 255.273 114.516 255.273 116.062 254.148C129.447 246.295 143.819 247.526 158.812 247.75C161.162 247.77 163.511 247.788 165.861 247.805C171.574 247.848 177.287 247.917 183 248C183 243.38 183 238.76 183 234C175.85 234.044 168.701 234.115 161.552 234.207C159.126 234.236 156.699 234.257 154.273 234.271C130.961 234.415 113.182 236.879 95.9998 254C95.1529 254.812 95.1529 254.812 94.2888 255.641C83.34 267.111 79.4879 283.096 79.5776 298.444C80.0587 315.263 87.2138 330.055 98.9998 342C115.641 355.9 133.803 358.293 154.794 358.319C156.559 358.328 158.324 358.338 160.09 358.349C164.847 358.376 169.604 358.392 174.362 358.405C179.347 358.42 184.331 358.447 189.316 358.473C198.74 358.519 208.164 358.556 217.587 358.589C228.323 358.628 239.058 358.677 249.793 358.727C271.862 358.831 293.931 358.92 316 359C315.67 358.196 315.34 357.391 315 356.562C314 353 314 353 314 344C284.63 344 255.26 344 225 344C224 340 224 340 225 338C254.37 338 283.74 338 314 338C314.66 334.37 315.32 330.74 316 327C318.505 318.875 322.342 312.306 328 306C328.618 305.3 329.237 304.6 329.875 303.879C339.35 293.773 352.436 287.648 366.312 286.797C384.109 286.571 398.724 291.138 411.785 303.691C423.056 315.439 428.474 329.17 428.359 345.363C427.727 369.951 410.701 391.266 394.472 408.352C392.71 410.239 391.061 412.114 389.433 414.109C386.279 417.856 382.733 420.854 379 424C378.134 424.804 377.267 425.609 376.375 426.437C373.276 428.476 371.669 428.404 368 428C365.254 426.277 365.254 426.277 362.562 423.937C361.61 423.112 360.657 422.287 359.676 421.437C353.681 415.977 348.214 410.209 343 404C342.57 403.495 342.141 402.99 341.698 402.47C335.483 395.121 329.861 387.577 324.812 379.375C324.343 378.617 323.873 377.859 323.389 377.079C321.126 373.305 319.809 370.354 319 366C317.629 366.003 317.629 366.003 316.231 366.006C293.944 366.05 271.657 366.083 249.37 366.104C238.592 366.114 227.814 366.128 217.036 366.151C207.636 366.171 198.237 366.184 188.837 366.188C183.865 366.191 178.893 366.197 173.921 366.211C169.23 366.225 164.539 366.229 159.849 366.226C158.138 366.227 156.426 366.231 154.715 366.238C131.483 366.338 109.85 362.949 92.156 346.281C77.945 331.246 71.4548 314.026 71.5779 293.523C72.049 277.158 78.1834 262.266 88.9998 250C89.6559 249.25 90.312 248.499 90.988 247.727C101.658 236.295 117.658 227.623 133.575 226.88C134.488 226.882 135.401 226.884 136.341 226.886C137.382 226.887 138.422 226.887 139.494 226.887C140.606 226.892 141.718 226.897 142.863 226.902C144.01 226.904 145.157 226.905 146.339 226.907C149.997 226.912 153.655 226.925 157.312 226.937C159.795 226.942 162.277 226.947 164.76 226.951C170.84 226.962 176.92 226.979 183 227C182.993 226.454 182.986 225.908 182.98 225.345C182.913 219.635 182.868 213.924 182.835 208.213C182.82 206.085 182.799 203.957 182.773 201.83C182.737 198.761 182.72 195.693 182.707 192.625C182.691 191.682 182.676 190.739 182.66 189.767C182.658 183.6 183.015 177.293 187.381 172.476C191.484 168.914 195.049 166.756 200.489 166.733C201.383 166.724 202.278 166.715 203.199 166.707C204.173 166.708 205.146 166.709 206.149 166.709C207.181 166.703 208.212 166.696 209.275 166.689C212.688 166.67 216.102 166.666 219.515 166.664C221.889 166.658 224.264 166.651 226.638 166.644C231.618 166.632 236.597 166.628 241.577 166.629C247.951 166.63 254.324 166.602 260.697 166.568C265.602 166.546 270.508 166.542 275.413 166.543C277.762 166.54 280.111 166.531 282.46 166.516C285.751 166.496 289.042 166.502 292.333 166.514C293.298 166.503 294.264 166.492 295.258 166.48C301.334 166.536 305.928 167.541 311 171C317.113 177.274 317.283 183.216 317.195 191.551C317.192 192.565 317.189 193.579 317.187 194.623C317.175 197.853 317.15 201.083 317.125 204.312C317.115 206.506 317.106 208.699 317.097 210.893C317.075 216.262 317.042 221.631 317 227C323.332 226.932 329.663 226.842 335.994 226.738C338.143 226.704 340.292 226.676 342.441 226.654C366.596 226.574 366.596 226.574 387.222 214.996C396.338 205.471 399.535 194.874 399.273 181.961C398.459 170.161 393.141 161.541 384.562 153.687C376.515 147.203 367.421 144.672 357.166 144.759C356.047 144.757 356.047 144.757 354.906 144.754C352.429 144.751 349.953 144.762 347.476 144.773C345.692 144.773 343.908 144.773 342.123 144.772C337.295 144.771 332.467 144.783 327.639 144.797C322.588 144.81 317.536 144.811 312.485 144.813C302.926 144.819 293.368 144.836 283.809 144.856C272.924 144.878 262.039 144.889 251.154 144.899C228.769 144.92 206.385 144.955 184 145C183.491 146.234 183.491 146.234 182.971 147.493C182.524 148.573 182.076 149.653 181.615 150.766C181.173 151.836 180.73 152.907 180.274 154.01C171.709 174.107 156.116 189.916 140.937 205.187C140.281 205.848 139.626 206.509 138.95 207.189C138.336 207.801 137.722 208.413 137.09 209.043C136.542 209.59 135.994 210.137 135.429 210.7C133.434 212.514 132.04 212.992 129.375 213.5C125.688 212.954 124.968 212.39 122.308 209.973C121.606 209.335 120.904 208.698 120.18 208.041C98.9937 188.207 72.839 161.761 71.5972 130.884C71.3676 116.438 75.3489 102.658 85.0779 91.6484C85.7121 91.1044 86.3463 90.5604 86.9998 90C89.2498 90.25 89.2498 90.25 90.9998 91C91.699 92.6796 91.699 92.6796 91.9998 95C90.7068 97.4453 90.7068 97.4453 88.8123 100.125C80.5551 112.437 77.8631 125.65 80.613 140.258C88.7009 166.41 109.041 186.313 128 205C133.369 202.658 136.992 198.348 141.062 194.25C141.916 193.391 142.769 192.532 143.648 191.647C157.888 177.134 170.828 160.634 177 141C177.2 140.389 177.399 139.778 177.605 139.148C180.32 124.364 176.755 111.568 169 99C162.058 88.9724 149.875 82.2033 138 80C135.035 79.7176 132.102 79.6674 129.125 79.6875C128.338 79.688 127.55 79.6886 126.739 79.6892C121.486 79.772 116.947 80.4315 112.043 82.4414C109.428 83.1564 107.59 82.6825 105 82C105 80.35 105 78.7 105 77C106.56 76.3486 108.123 75.7041 109.687 75.0625C110.557 74.7028 111.427 74.3432 112.324 73.9726C130.843 67.241 150.592 73.7158 166.019 84.3984ZM186 123C186 127.62 186 132.24 186 137C189.324 137.009 189.324 137.009 192.715 137.018C213.608 137.074 234.501 137.148 255.394 137.236C266.135 137.281 276.876 137.32 287.617 137.346C296.983 137.369 306.348 137.403 315.714 137.449C320.67 137.473 325.625 137.491 330.581 137.498C335.253 137.504 339.925 137.524 344.597 137.554C346.304 137.563 348.012 137.567 349.719 137.565C365.962 137.553 380.301 139.668 392.75 151C402.792 161.655 406.55 174.812 406.308 189.121C405.308 201.69 399.832 212.731 390.687 221.375C379.249 230.901 366.656 233.068 352.254 233.316C351.243 233.337 350.231 233.358 349.19 233.379C345.981 233.444 342.771 233.503 339.562 233.562C337.378 233.606 335.194 233.649 333.01 233.693C327.673 233.8 322.336 233.901 317 234C317 238.62 317 243.24 317 248C323.579 248.075 330.159 248.129 336.739 248.165C338.971 248.18 341.203 248.2 343.436 248.226C365.962 248.569 365.962 248.569 387.125 241.5C387.789 241.156 388.453 240.812 389.137 240.457C404.076 232.323 414.471 218.886 419.344 202.621C419.56 201.756 419.777 200.891 420 200C420.191 199.25 420.381 198.499 420.578 197.727C423.176 180.935 420.297 164.338 411 150C400.918 136.297 386.972 126.686 370.203 123.425C363.265 122.504 356.235 122.742 349.249 122.773C347.465 122.773 345.68 122.773 343.895 122.772C339.076 122.771 334.256 122.783 329.437 122.797C324.39 122.81 319.344 122.811 314.298 122.813C304.754 122.819 295.21 122.836 285.665 122.856C274.795 122.878 263.924 122.889 253.053 122.899C230.702 122.92 208.351 122.956 186 123ZM193 177C184.581 191.032 190 209.636 190 226C229.6 226 269.2 226 310 226C312.637 199.596 312.637 199.596 306 176C302.889 173.926 302.214 173.749 298.686 173.739C297.806 173.732 296.926 173.725 296.019 173.718C295.055 173.72 294.092 173.723 293.1 173.725C291.575 173.718 291.575 173.718 290.019 173.71C286.651 173.696 283.282 173.697 279.914 173.699C277.576 173.695 275.238 173.691 272.9 173.686C267.996 173.679 263.092 173.679 258.187 173.684C251.9 173.69 245.613 173.673 239.326 173.65C234.496 173.635 229.666 173.634 224.836 173.637C222.518 173.637 220.2 173.632 217.882 173.622C214.641 173.609 211.4 173.616 208.158 173.628C207.199 173.62 206.24 173.612 205.252 173.604C198.612 173.655 198.612 173.655 193 177ZM190 233C186.487 266.932 186.487 266.932 194 277C196.804 278.928 199.025 279.252 202.389 279.267C203.261 279.276 204.132 279.284 205.031 279.293C205.979 279.292 206.928 279.291 207.906 279.29C208.911 279.297 209.916 279.304 210.952 279.311C214.278 279.33 217.604 279.334 220.929 279.336C223.241 279.342 225.553 279.349 227.864 279.356C232.711 279.368 237.558 279.372 242.406 279.371C248.615 279.37 254.825 279.398 261.034 279.432C265.809 279.454 270.584 279.458 275.359 279.457C277.649 279.46 279.938 279.469 282.227 279.484C285.43 279.504 288.632 279.498 291.835 279.486C292.78 279.497 293.724 279.508 294.698 279.52C300.267 279.467 303.669 278.861 308 275C314.268 262.464 310 247.016 310 233C270.4 233 230.8 233 190 233ZM201 286C200.919 288.584 200.859 291.165 200.812 293.75C200.787 294.48 200.762 295.209 200.736 295.961C200.692 299.205 200.781 301.581 202.297 304.484C204.056 306.33 204.056 306.33 207.437 306.5C210.947 306.277 210.947 306.277 213.207 304.484C215.714 301.01 215.438 297.857 215.25 293.75C215.223 292.632 215.223 292.632 215.195 291.492C215.148 289.661 215.076 287.83 215 286C210.38 286 205.76 286 201 286ZM285 286C284.946 288.417 284.906 290.833 284.875 293.25C284.858 293.932 284.841 294.614 284.824 295.316C284.788 299.031 284.812 301.909 287 305C289.841 306.42 291.855 306.314 295 306C297.343 304.56 297.343 304.56 299 302C299.29 299.105 299.382 296.62 299.25 293.75C299.223 292.632 299.223 292.632 299.195 291.492C299.148 289.661 299.076 287.83 299 286C294.38 286 289.76 286 285 286ZM332.261 311.117C322.894 323.057 319.413 337.039 321 352C324.519 371.19 337.921 387.647 350.781 401.594C353.083 404.09 355.32 406.638 357.562 409.187C361.424 413.492 365.537 417.328 370 421C377.746 417.617 383.887 410.441 389.238 404.066C390.468 402.624 391.74 401.217 393.043 399.84C407.649 384.355 421.605 364.056 421.42 342.105C420.901 327.975 414.552 315.481 404.285 305.848C381.948 287.787 351.88 290.456 332.261 311.117Z" fill="black"/>
<path d="M148.18 104.402C155.124 109.762 159.334 117.07 160.508 125.758C160.841 136.743 158.584 145.168 151 153.242C143.228 160.073 135.687 161.378 125.609 161.273C116.785 160.605 109.81 156.611 104 150C98.0395 141.222 97.2015 133.54 97.9999 123C99.8433 114.872 104.408 108.118 111.312 103.43C123.122 96.6316 136.694 97.0127 148.18 104.402ZM110.062 113.875C105.21 121.227 103.81 127.173 105 136C107.653 144.186 111.788 148.557 119.125 152.813C125.085 155.089 131.747 155.027 137.785 153.121C144.276 150.155 148.965 146.14 152.129 139.703C154.094 133.606 154.098 126.391 152.125 120.297C148.606 113.49 143.335 108.384 136 106C126.117 104.77 116.993 106.224 110.062 113.875Z" fill="black"/>
<path d="M388.379 318.477C395.547 323.649 399.606 329.502 402 338C403.015 347.962 402.108 356.246 396.234 364.473C391.244 370.513 386.43 373.523 379 376C368.414 376.969 359.954 376.412 351 370C344.629 364.485 340.518 357.864 339.621 349.445C339.293 338.929 340.975 330.355 348.301 322.531C359.379 312.548 375.567 310.524 388.379 318.477ZM353.117 327.973C351.602 329.931 350.255 331.867 349 334C348.626 334.602 348.252 335.204 347.867 335.824C345.656 341.372 346.177 348.736 347.617 354.449C350.347 360.599 355.374 365.301 361.426 368.137C368.679 370.63 375.077 370.474 382.125 367.438C388.227 364.094 392.903 358.633 395 352C396.068 343.42 395.282 336.022 390 329C384.608 323.771 378.902 320.735 371.312 320.563C364.077 320.714 358.19 322.657 353.117 327.973Z" fill="black"/>
<path d="M238.359 251.722C239.086 251.726 239.813 251.73 240.562 251.734C241.31 251.733 242.057 251.731 242.826 251.729C244.407 251.727 245.987 251.731 247.567 251.739C249.99 251.75 252.413 251.739 254.836 251.727C256.37 251.728 257.904 251.731 259.438 251.734C260.165 251.73 260.892 251.726 261.641 251.722C266.77 251.77 266.77 251.77 269 254C268.67 255.65 268.34 257.3 268 259C256.12 259 244.24 259 232 259C231.67 257.35 231.34 255.7 231 254C233.489 251.512 234.962 251.754 238.359 251.722Z" fill="black"/>
<path d="M214.062 250.187C217 251 217 251 219 254C218.625 257.187 218.625 257.187 218 260C216.02 260.66 214.04 261.32 212 262C209.438 259.812 209.438 259.812 207 257C207 254.312 207 254.312 208 252C211 250 211 250 214.062 250.187Z" fill="black"/>
<path d="M288.125 250.063C291 251 291 251 293 254C292.844 257.118 292.371 258.574 290.312 260.938C288 262 288 262 284.75 261.188C283.389 260.6 283.389 260.6 282 260C281.25 257.25 281.25 257.25 281 254C283.145 250.654 284.119 249.982 288.125 250.063Z" fill="black"/>
</svg>
