<svg width="500" height="500" viewBox="0 0 500 500" fill="none" xmlns="http://www.w3.org/2000/svg">
<path d="M302.313 183.937C303.891 185.274 305.454 186.627 307 188C307.686 188.592 308.372 189.183 309.078 189.793C318.036 198.063 324.764 209.632 329 221C329.588 222.535 329.588 222.535 330.188 224.101C336.761 244.324 334.481 267.384 325.25 286.312C314.406 307.316 297.762 321.567 275.445 329.219C252.486 336.014 229.467 332.958 208.285 321.91C203.394 319.066 199.184 315.796 195 312C194.169 311.261 193.337 310.523 192.481 309.762C176.53 294.791 168.326 274.82 166.719 253.219C166.14 230.241 173.844 209.205 189.633 192.406C190.414 191.612 191.195 190.818 192 190C192.761 189.226 193.521 188.453 194.305 187.656C223.654 159.558 270.702 159.325 302.313 183.937ZM196 196C195.225 196.75 194.451 197.5 193.652 198.273C179.431 212.958 173.468 232.521 173.785 252.699C174.523 273.069 183.833 291.757 198.278 305.867C212.235 318.809 231.219 325.82 250.188 326.312C272.765 325.443 292.182 316.605 307.688 300.25C321.595 284.104 328.286 264.319 326.727 243.036C325.078 225.945 318.495 210.745 307 198C306.408 197.315 305.817 196.631 305.207 195.926C291.775 181.348 272.789 174.249 253.395 172.715C231.136 172.136 211.705 180.571 196 196Z" fill="black"/>
<path d="M424 125C427.161 126.37 427.993 126.989 430 130C416.14 143.86 402.28 157.72 388 172C389.665 177.032 389.665 177.032 391.734 181.785C409.557 219.43 412.095 261.771 398.958 301.352C396.408 308.4 393.223 315.189 389.958 321.93C388.885 324.248 387.949 326.628 387 329C400.86 342.86 414.72 356.72 429 371C427.68 372.65 426.36 374.3 425 376C421.468 374.493 419.204 372.446 416.507 369.734C415.626 368.853 414.746 367.972 413.838 367.065C412.887 366.103 411.936 365.142 410.984 364.18C410.004 363.196 409.023 362.212 408.042 361.229C405.466 358.646 402.897 356.056 400.329 353.466C397.704 350.821 395.075 348.182 392.445 345.543C387.291 340.368 382.144 335.186 377 330C377.541 328.925 378.081 327.85 378.638 326.742C379.359 325.304 380.08 323.867 380.801 322.43C381.156 321.724 381.51 321.019 381.876 320.292C397.864 288.39 403.866 253.187 396 218C395.834 217.253 395.667 216.507 395.496 215.738C392.162 201.367 386.8 187.076 378.617 174.727C378 173 378 173 378.695 171.173C380.266 168.557 382.101 166.66 384.266 164.507C385.147 163.626 386.028 162.746 386.935 161.838C387.897 160.887 388.858 159.936 389.82 158.984C390.804 158.004 391.788 157.023 392.771 156.042C395.354 153.466 397.944 150.897 400.534 148.329C403.179 145.704 405.818 143.075 408.457 140.445C413.632 135.291 418.814 130.144 424 125Z" fill="black"/>
<path d="M74.0002 127C77.0785 128.382 79.2805 129.99 81.7229 132.309C82.421 132.968 83.1191 133.627 83.8383 134.307C84.5724 135.01 85.3064 135.713 86.0627 136.438C86.8206 137.157 87.5785 137.876 88.3593 138.617C93.5449 143.556 98.6196 148.59 103.653 153.684C106.336 156.331 109.141 158.786 112.008 161.23C115.846 164.639 119.41 168.335 123 172C121.625 175.628 119.998 179.088 118.284 182.567C103.31 213.268 97.4704 249.486 106 283C106.298 284.183 106.298 284.183 106.602 285.389C109.66 297.143 113.91 308.145 119.134 319.097C120.166 321.365 121.075 323.687 122 326C106.49 341.51 90.9802 357.02 75.0002 373C71.0002 371 71.0002 371 70.0153 369.139C70.0002 367 70.0002 367 71.4812 364.958C72.2325 364.236 72.9839 363.514 73.758 362.77C75.0243 361.533 75.0243 361.533 76.3161 360.271C77.2431 359.389 78.1701 358.507 79.1252 357.598C80.5551 356.2 81.985 354.803 83.4139 353.404C86.4423 350.448 89.4917 347.514 92.541 344.58C95.0491 342.165 97.5516 339.746 100.039 337.31C101.907 335.482 103.789 333.667 105.684 331.867C106.528 331.04 107.373 330.212 108.242 329.36C108.994 328.637 109.745 327.914 110.519 327.169C112.277 325.078 112.277 325.078 111.812 322.403C110.836 319.513 109.601 316.861 108.25 314.125C94.2351 284.217 90.5875 248.197 98.0002 216C98.1665 215.259 98.3328 214.519 98.5041 213.755C101.418 201.186 106.069 189.292 112.118 177.893C113.161 176.048 113.161 176.048 112.879 174.02C111.7 171.309 110.062 169.739 107.938 167.688C107.115 166.891 106.293 166.094 105.446 165.273C103.435 163.404 101.401 161.593 99.3127 159.812C94.6748 155.844 90.4507 151.476 86.1606 147.141C82.387 143.343 78.5486 139.689 74.4533 136.234C73.0002 135 73.0002 135 71.0002 133C71.367 130.065 71.8646 129.136 74.0002 127Z" fill="black"/>
<path d="M175 380C179.273 380.535 182.325 381.517 186.062 383.625C199.363 390.491 214.239 394.745 229 397C230.183 397.183 231.367 397.366 232.586 397.555C261.586 401.03 291.024 396.281 316.91 382.808C318.022 382.24 318.022 382.24 319.156 381.66C319.804 381.316 320.452 380.972 321.119 380.617C323.583 379.809 324.566 380.098 327 381C329.189 382.829 329.189 382.829 331.585 385.244C332.486 386.145 333.386 387.046 334.314 387.974C335.288 388.963 336.261 389.952 337.234 390.941C338.237 391.95 339.24 392.957 340.244 393.964C342.881 396.612 345.509 399.27 348.135 401.929C350.818 404.642 353.509 407.347 356.199 410.053C361.475 415.36 366.74 420.677 372 426C370.68 427.65 369.36 429.3 368 431C364.64 429.541 362.448 427.691 359.874 425.101C359.074 424.3 358.273 423.5 357.448 422.675C356.594 421.81 355.74 420.946 354.859 420.055C353.977 419.17 353.095 418.285 352.186 417.373C349.848 415.025 347.514 412.674 345.183 410.32C342.8 407.917 340.411 405.519 338.023 403.121C333.344 398.419 328.67 393.712 324 389C323.479 389.225 322.958 389.45 322.421 389.682C303.078 398.009 303.078 398.009 294.562 400.312C293.695 400.55 292.827 400.788 291.932 401.034C252.565 411.429 214.675 405.3 178 389C164.14 402.86 150.28 416.72 136 431C132 429 132 429 130 426C130.505 425.497 131.01 424.995 131.53 424.477C136.299 419.728 141.066 414.976 145.83 410.222C148.279 407.778 150.729 405.335 153.181 402.894C156.004 400.085 158.822 397.271 161.641 394.457C162.517 393.586 163.393 392.715 164.296 391.818C165.116 390.997 165.937 390.177 166.782 389.331C167.502 388.614 168.221 387.897 168.962 387.158C171.121 384.872 173.069 382.479 175 380Z" fill="black"/>
<path d="M134 69C138.138 69.5125 139.951 71.6743 142.75 74.625C145.664 77.6318 148.545 80.556 151.75 83.25C155.71 86.6303 159.34 90.3024 163 94C171.47 102.619 171.47 102.619 181 110C183.695 108.942 186.173 107.797 188.75 106.5C224.781 89.4496 267.757 89.8332 304.883 103.023C311.324 105.511 317.653 108.28 324 111C337.86 97.14 351.72 83.28 366 69C370 71 370 71 372 74C366.106 80.0325 360.197 86.0488 354.266 92.0448C351.513 94.8294 348.765 97.6194 346.031 100.422C343.392 103.126 340.739 105.815 338.075 108.495C337.06 109.52 336.051 110.551 335.048 111.587C333.643 113.035 332.217 114.464 330.79 115.891C329.984 116.71 329.178 117.53 328.348 118.374C326 120 326 120 323.349 119.83C320.723 118.902 318.435 117.73 316 116.375C302.653 109.545 287.789 105.259 273 103C271.828 102.817 270.656 102.634 269.449 102.445C240.138 98.9318 211.763 104.21 185.188 116.582C184.136 117.05 183.084 117.518 182 118C181.304 118.334 180.608 118.668 179.891 119.012C178 119 178 119 175.484 116.938C174.561 115.97 173.65 114.99 172.75 114C171.764 112.963 170.775 111.928 169.785 110.895C169.306 110.39 168.826 109.886 168.333 109.366C166.703 107.696 164.977 106.184 163.188 104.688C158.582 100.765 154.4 96.4285 150.151 92.1294C146.464 88.4153 142.686 84.9096 138.688 81.5312C135.824 78.9326 133.443 75.9922 131 73C131.99 71.68 132.98 70.36 134 69Z" fill="black"/>
<path d="M331 332C334.161 333.37 334.993 333.989 337 337C324.39 348.744 324.39 348.744 319 352C318.01 351.67 317.02 351.34 316 351C314.812 348.438 314.812 348.438 314 346C314.641 345.492 315.281 344.984 315.941 344.461C321.046 340.398 326.077 336.281 331 332Z" fill="black"/>
<path d="M296 358C296.33 359.98 296.66 361.96 297 364C281.44 369.556 281.44 369.556 273 370C272.67 368.02 272.34 366.04 272 364C274.07 363.31 276.139 362.621 278.211 361.937C280.202 361.268 282.185 360.579 284.164 359.875C285.224 359.504 286.283 359.132 287.375 358.75C288.373 358.394 289.37 358.038 290.398 357.672C293 357 293 357 296 358Z" fill="black"/>
<path d="M185 346C187.992 346.636 190.419 347.62 193.109 349.066C193.863 349.469 194.618 349.872 195.395 350.287C196.56 350.918 196.56 350.918 197.75 351.562C198.939 352.2 198.939 352.2 200.152 352.85C202.104 353.896 204.053 354.946 206 356C205.67 357.98 205.34 359.96 205 362C202 363 202 363 198.602 361.488C197.27 360.773 195.945 360.048 194.625 359.312C193.635 358.784 193.635 358.784 192.625 358.244C188.768 356.143 185.353 353.868 182 351C182.99 349.35 183.98 347.7 185 346Z" fill="black"/>
<path d="M156 314C157.61 315.886 159.027 317.724 160.438 319.75C163.617 324.211 163.617 324.211 167.285 328.258C169 330 169 330 169 332.125C167.73 334.506 166.404 334.904 164 336C158.113 330.61 153.551 324.536 149 318C152.625 314 152.625 314 156 314Z" fill="black"/>
<path d="M185 148C185.99 149.98 186.98 151.96 188 154C187.108 154.675 186.216 155.351 185.297 156.047C184.114 156.948 182.932 157.849 181.75 158.75C181.163 159.193 180.577 159.637 179.973 160.094C176.756 162.551 173.788 165.047 171 168C167.839 166.63 167.007 166.011 165 163C178.948 148 178.948 148 185 148Z" fill="black"/>
<path d="M357 294C358.98 294.66 360.96 295.32 363 296C360.839 303.628 357.626 310.524 353 317C352.01 317.33 351.02 317.66 350 318C347.812 316.562 347.812 316.562 346 315C347.7 310.265 350.137 306.038 352.625 301.688C353.045 300.947 353.465 300.206 353.898 299.443C354.929 297.627 355.964 295.813 357 294Z" fill="black"/>
<path d="M336 164C343 166.937 348.307 174.537 352 181C352 181.99 352 182.98 352 184C349 186 349 186 347.062 185.957C344.035 184.552 342.858 182.428 341 179.688C339.034 176.812 337.227 174.223 334.742 171.777C334.167 171.191 333.592 170.604 333 170C333.178 166.982 333.837 166.163 336 164Z" fill="black"/>
<path d="M297 137C302.043 137.576 305.916 139.912 310.25 142.375C310.982 142.775 311.714 143.174 312.469 143.586C313.513 144.174 313.513 144.174 314.578 144.773C315.211 145.128 315.845 145.483 316.497 145.849C318 147 318 147 319 150C317.562 152.188 317.562 152.188 316 154C311.265 152.3 307.038 149.863 302.688 147.375C301.947 146.955 301.206 146.535 300.443 146.102C298.627 145.071 296.813 144.036 295 143C295.66 141.02 296.32 139.04 297 137Z" fill="black"/>
<path d="M229 131C229 132.98 229 134.96 229 137C226.084 137.813 223.167 138.626 220.25 139.438C219.425 139.668 218.6 139.898 217.75 140.135C216.951 140.357 216.152 140.58 215.328 140.809C214.595 141.013 213.862 141.217 213.106 141.428C211.077 141.979 209.042 142.498 207 143C205 140 205 140 205 136C207.416 135.186 209.833 134.374 212.25 133.563C212.932 133.332 213.614 133.102 214.316 132.865C223.781 129.695 223.781 129.695 229 131Z" fill="black"/>
<path d="M227 363C238.88 364.485 238.88 364.485 251 366C251 368.31 251 370.62 251 373C247.208 372.694 243.416 372.379 239.625 372.062C238.545 371.975 237.465 371.888 236.352 371.799C235.32 371.712 234.289 371.625 233.227 371.535C232.273 371.457 231.32 371.378 230.338 371.297C228 371 228 371 226 370C226.33 367.69 226.66 365.38 227 363Z" fill="black"/>
<path d="M135.562 271.938C136.769 271.968 136.769 271.968 138 272C140.472 279.292 142.757 286.634 145 294C142.811 295.329 141.538 296.056 138.952 295.786C138.308 295.527 137.664 295.267 137 295C135.859 292.203 135.012 289.649 134.25 286.75C134.029 285.986 133.809 285.221 133.582 284.434C132.51 280.579 131.593 277.037 132 273C133 272 133 272 135.562 271.938Z" fill="black"/>
<path d="M365 250C367.31 250 369.62 250 372 250C372.207 258.627 372.215 266.596 370 275C367.69 274.34 365.38 273.68 363 273C363.66 265.41 364.32 257.82 365 250Z" fill="black"/>
<path d="M364 204C369.556 219.745 369.556 219.745 370 227C367.69 227.33 365.38 227.66 363 228C361.02 220.74 359.04 213.48 357 206C360 204 360 204 364 204Z" fill="black"/>
<path d="M132 225C134.97 225.495 134.97 225.495 138 226C137.858 228.688 137.711 231.375 137.562 234.062C137.504 235.191 137.504 235.191 137.443 236.342C137.184 240.947 136.72 245.444 136 250C133.69 250 131.38 250 129 250C129.115 247.333 129.242 244.667 129.375 242C129.406 241.256 129.437 240.512 129.469 239.746C129.738 234.594 130.611 229.97 132 225Z" fill="black"/>
<path d="M149 182C151.375 182.312 151.375 182.312 154 183C154.66 183.99 155.32 184.98 156 186C155.06 187.663 155.06 187.663 154.102 189.359C153.276 190.823 152.45 192.286 151.625 193.75C151.212 194.48 150.8 195.209 150.375 195.961C149.975 196.67 149.576 197.379 149.164 198.109C148.797 198.759 148.431 199.408 148.053 200.077C146.984 202.028 145.982 204.004 145 206C143.02 205.34 141.04 204.68 139 204C139.572 198.808 142.098 194.69 144.562 190.188C144.987 189.399 145.412 188.611 145.85 187.799C146.894 185.863 147.944 183.93 149 182Z" fill="black"/>
<path d="M251 127C259.521 127.397 267.72 127.782 276 130C275.34 132.31 274.68 134.62 274 137C266.41 136.01 258.82 135.02 251 134C251 131.69 251 129.38 251 127Z" fill="black"/>
<path d="M127 368C130.161 369.37 130.993 369.989 133 373C128.71 377.29 124.42 381.58 120 386C118.35 384.68 116.7 383.36 115 382C116.587 378.097 119.134 375.665 122.125 372.75C123.035 371.858 123.945 370.966 124.883 370.047C125.581 369.371 126.28 368.696 127 368Z" fill="black"/>
<path d="M119 114C123.919 118.116 128.526 122.404 133 127C131.68 128.65 130.36 130.3 129 132C125.097 130.413 122.665 127.866 119.75 124.875C118.858 123.965 117.966 123.055 117.047 122.117C116.034 121.069 116.034 121.069 115 120C116.152 117.532 117.048 115.952 119 114Z" fill="black"/>
<path d="M372 368C376.56 371.805 380.851 375.75 385 380C383.63 383.161 383.011 383.993 380 386C376.04 382.04 372.08 378.08 368 374C370 370 370 370 372 368Z" fill="black"/>
<path d="M380 114C381.65 115.32 383.3 116.64 385 118C383.413 121.903 380.866 124.335 377.875 127.25C376.965 128.142 376.055 129.034 375.117 129.953C374.419 130.629 373.72 131.304 373 132C371.35 130.68 369.7 129.36 368 128C369.587 124.097 372.134 121.665 375.125 118.75C376.035 117.858 376.945 116.966 377.883 116.047C378.581 115.371 379.28 114.696 380 114Z" fill="black"/>
<path d="M355 139C358.161 140.37 358.993 140.989 361 144C359.02 145.98 357.04 147.96 355 150C351.839 148.63 351.007 148.011 349 145C350.98 143.02 352.96 141.04 355 139Z" fill="black"/>
<path d="M397 393C399.31 394.98 401.62 396.96 404 399C402 403 402 403 400.188 404.062C398 404 398 404 395.25 401.562C394.507 400.717 393.765 399.871 393 399C394.152 396.532 395.048 394.952 397 393Z" fill="black"/>
<path d="M102 393C105.161 394.37 105.993 394.989 108 398C106.02 399.98 104.04 401.96 102 404C99.5673 403.058 98.2756 402.47 96.9375 400.188C97 398 97 398 99.4375 395.25C100.283 394.507 101.129 393.765 102 393Z" fill="black"/>
<path d="M353 350C355.844 351.275 358.138 352.451 360 355C359.938 357.062 359.938 357.062 359 359C357.02 359.99 357.02 359.99 355 361C353.02 358.69 351.04 356.38 349 354C350.32 352.68 351.64 351.36 353 350Z" fill="black"/>
<path d="M147.062 350.062C149 351 149 351 151 355C148.69 356.98 146.38 358.96 144 361C142.68 359.68 141.36 358.36 140 357C143.163 349.944 143.163 349.944 147.062 350.062Z" fill="black"/>
<path d="M144 139C146.31 140.98 148.62 142.96 151 145C149 149 149 149 147.188 150.062C145 150 145 150 142.25 147.562C141.507 146.717 140.765 145.871 140 145C141.152 142.532 142.048 140.952 144 139Z" fill="black"/>
<path d="M400.062 96.0624C402 96.9999 402 96.9999 404 101C401.69 102.98 399.38 104.96 397 107C395.68 105.68 394.36 104.36 393 103C396.163 95.9442 396.163 95.9442 400.062 96.0624Z" fill="black"/>
<path d="M100 96C103.795 97.491 105.61 99.757 108 103C106.68 104.32 105.36 105.64 104 107C101.156 105.725 98.8625 104.549 97 102C97.2704 99.026 97.8545 98.1455 100 96Z" fill="black"/>
</svg>
